<svg id="Layer_1" data-name="Layer 1" xmlns="http://www.w3.org/2000/svg" viewBox="0 0 732 434.6"><defs><style>.cls-1{fill:#fff;}</style></defs><path class="cls-1" d="M228.9,423.8a2.51,2.51,0,0,0-.8.7c-.2.4.3,1,.8,1.1a1.08,1.08,0,0,0,1.1-.7C230.1,424.4,229.8,423.8,228.9,423.8Z"/><path class="cls-1" d="M232.4,428a9.64,9.64,0,0,1,.2-1.2,7.41,7.41,0,0,1-1.2,1.1c0,.3,0,.3.1.4.2.6.7,1,1.2.6S232.3,428.5,232.4,428Z"/><path class="cls-1" d="M238.2,425.3a.89.89,0,0,0-1.1,1,1.35,1.35,0,0,0,.8,1.2,1.5,1.5,0,0,0,1.4-1.2C239.3,425.8,238.9,425.5,238.2,425.3Z"/><path class="cls-1" d="M245.3,425.2a1.23,1.23,0,0,0,.4.8c.9-.3,1-1,1.1-1.8a5,5,0,0,0-1.2-.8A6.15,6.15,0,0,0,245.3,425.2Z"/><path class="cls-1" d="M224.7,421.6c-1,0-1.7.1-1.9.8-.1.5.6.8.9,1.1.1.1.4.1,1,.4A8.84,8.84,0,0,1,224.7,421.6Z"/><path class="cls-1" d="M218.8,420.5c.5,1.1.7,1.1.1,1.9a5,5,0,0,0-.5,2.7c.3.1.5.4.9.5.8-.7,1.5-1.4,1.5-2.2a2.51,2.51,0,0,1,.5-1.9c.1-.1-.1-.5-.3-1.1C220.1,422.2,219.6,420,218.8,420.5Z"/><path class="cls-1" d="M266.2,430a6.69,6.69,0,0,0-1.9-.5,3.7,3.7,0,0,0-1.8-1.9h-.4a10.54,10.54,0,0,1-.7,1.1c-1.1.1-2.1-.5-3-.1s-2.1.1-3,1.2c1.1.1,1.8-.4,2.6,0a6.41,6.41,0,0,0,3.8.8c1,0,1.9.3,2.9.3a18.48,18.48,0,0,0,2.3.1c.3-.4.5-.8.7-1.1C267.2,429.3,266.7,430.2,266.2,430Z"/><path class="cls-1" d="M270.3,420.4l-.4.4c-.1.3-.6.6,0,.9a2.48,2.48,0,0,0,.9.1,3.18,3.18,0,0,0,.3-.9A1.46,1.46,0,0,1,270.3,420.4Z"/><path class="cls-1" d="M268.5,423.1c-1.1-.1-1.1,1.2-2.2.9a2.34,2.34,0,0,0,2,1.7,1.34,1.34,0,0,0,1.4-.8c-.6-.3-1-.4-1.4-.6C267.9,423.7,269,423.6,268.5,423.1Z"/><path class="cls-1" d="M215.4,417.2c-.1,0-.3.4-.4.7a.78.78,0,0,0,.4.4c.6,0,1.3.1,1.8-.6A2.73,2.73,0,0,0,215.4,417.2Z"/><path class="cls-1" d="M252.2,425.3c-.8,1.5-.8,1.6.8,2.2a1.78,1.78,0,0,0,.3-2.1A3.75,3.75,0,0,1,252.2,425.3Z"/><path class="cls-1" d="M248.7,423.9a2.7,2.7,0,0,0-.9,0c-.1,0-.3.4-.3.4.5,1-.1,1.6-.4,2.5a7.27,7.27,0,0,1,.9.8c.7-.7,1.3-1.2,2.1-1.9C249.7,425.1,249.5,424.3,248.7,423.9Z"/><path class="cls-1" d="M242.4,420.7a.63.63,0,0,0-.4.9c.1.3.6.4,1,.1a6.47,6.47,0,0,0,.8-.9A1.2,1.2,0,0,0,242.4,420.7Z"/><path class="cls-1" d="M227.3,419.3c-.7.3-1.2.5-1.8.8a4.35,4.35,0,0,0,.4.7,12.75,12.75,0,0,0,1.4-.4c.6-.8,1-1.5,1.5-2.3-.7-.8-.4-1.9-1.4-2.6a9.66,9.66,0,0,0-1.8.3c-1.1.3-1.2,1.1-.4,1.7.3.3,1,.4,1,.9.1.1.4.1.6.3A2.65,2.65,0,0,1,227.3,419.3Z"/><path class="cls-1" d="M221.9,416.3a6.56,6.56,0,0,0-.7,1.5H220a1.91,1.91,0,0,0,.4.8,6.19,6.19,0,0,1,2.5,1.7,1.36,1.36,0,0,0,1.8.3,4.12,4.12,0,0,1,.8-.3c.3-.5.4-.9.7-1.5-.8-.1-1.7.5-2.3-.4,0,0-.6.1-.8.1a3.75,3.75,0,0,1-1-.1,4.36,4.36,0,0,1,1.1-.9c.3-.3.7-.3,1.2-.5a8.46,8.46,0,0,0-1.5-.9,2.49,2.49,0,0,0-.8-.1c-1,.3-1.5-.3-2.1-.7,0,.3-.1.4-.1.8A4.42,4.42,0,0,1,221.9,416.3Z"/><path class="cls-1" d="M253.4,422.1c-.3-.1-.4-.4-.5-.5a5.36,5.36,0,0,0-1.1.5c-.3-1.4-.4-2.7-2-3.1-.1.7-.3,1-.8,1-1-.1-1.8-.3-2.7-.4a7.57,7.57,0,0,0-1.5.1c-.5.1-.4.7-.5,1.1a10.83,10.83,0,0,1,1.8.7c0-.5-.1-.8-.1-1.2.8.1,1.5.3,2.3.4.3.7.5,1.2,1.2,1.5a13.66,13.66,0,0,0,4.9.5C254.2,422.2,253.7,422.2,253.4,422.1Z"/><path class="cls-1" d="M213.1,419.4c.5.5.9.9,1.5,1.4.8-.7.1-1.2,0-1.7C213.8,418.9,213.4,418.9,213.1,419.4Z"/><path class="cls-1" d="M244.1,420.8h0c.1,0,.1-.1,0,0Z"/><path class="cls-1" d="M202.6,417.2c-.7-.1-1.3,0-1.4,1.2a9.15,9.15,0,0,1,1.6-.1c.4,0,.8.1.7-.4A1,1,0,0,0,202.6,417.2Z"/><path class="cls-1" d="M209.7,418.9c.7,1.2,1,1.2,1.9.4C211,418.9,210.5,418.5,209.7,418.9Z"/><path class="cls-1" d="M227.9,421.1c1.5,0,2.9,1.2,4.6.9.3,0,.6.3.8.3.6.1,1.1.5,1.7.4a2.66,2.66,0,0,1,2.2.9,8.65,8.65,0,0,0,1,.7h.4c0-.1.1-.4.1-.5a.68.68,0,0,1,.3-.5c1.9,0,1.9,0,2.9.4a9.92,9.92,0,0,1-.3,1.5c-.1.5-.7,1.1.3,1.6a8.92,8.92,0,0,0,1.9-.7c.1-.7.3-1.4.4-1.9a7.3,7.3,0,0,0-4.3-2.3c-.8-.1-1.5-.3-2.2-.4-.8-.8-1.1-1.5-2.1-1.8-.3.3-.6.4-.8.7a15.37,15.37,0,0,0-1.9-.9c-.3-.1-.7-.3-.7-.5-.4-1.5-1.8-1.2-2.8-1.5-.6.7-.3.9.3,1.2.3.1,1,0,1,.7a2.8,2.8,0,0,1-3.3,1.1C227.5,420.7,227.7,421.1,227.9,421.1Z"/><path class="cls-1" d="M300,426.3a1.05,1.05,0,0,0,1.3.4,1.8,1.8,0,0,0,.9-.6c.1-.4.1-.9.3-1.6-.9.1-1.5.3-2.1.4C300,425.1,299.7,426,300,426.3Z"/><path class="cls-1" d="M285.8,434.2c0,.1.4.4.6.4s.6-.3.6-.4a2.28,2.28,0,0,0-.3-1.1C285.8,433.4,285.7,433.7,285.8,434.2Z"/><path class="cls-1" d="M282.9,429c-.5-.1-.9-.1-1.7-.3a5.48,5.48,0,0,0,.4,1.2.6.6,0,0,0,.1.4c.3.3.5.6.8.6a.92.92,0,0,0,.9-1C283.4,429.4,283.3,429.1,282.9,429Z"/><path class="cls-1" d="M286.6,422.6a3,3,0,0,1-1.2-.3C285.9,423.3,285.9,423.3,286.6,422.6Z"/><path class="cls-1" d="M284.4,416.9a2.29,2.29,0,0,0-.7-1,.94.94,0,0,0-1.3-.1,1.59,1.59,0,0,0-.5,1,3.94,3.94,0,0,0,.5,1.4c.1.3.4.3.5.4C284.2,418.6,284.8,417.7,284.4,416.9Z"/><path class="cls-1" d="M278.2,430.7a.7.7,0,0,0,.4.9c.3,0,.6-.1,1-.1-.3-.4-.3-.7-.6-1C279,430.1,278.4,430.4,278.2,430.7Z"/><path class="cls-1" d="M291.2,427.8a2.83,2.83,0,0,1-.6-.3,11.31,11.31,0,0,1,.4,1.5,13.57,13.57,0,0,1-.1,1.8c.6-.3,1-.3,1.1-.4a1.7,1.7,0,0,0,0-1C291.7,428.9,291.2,428.5,291.2,427.8Z"/><path class="cls-1" d="M285.1,427.6c-.3-.1-.7.3-.7.6s.3.4.6.9a1.62,1.62,0,0,0,.4-1C285.6,427.9,285.3,427.6,285.1,427.6Z"/><path class="cls-1" d="M303.4,421.9a11.56,11.56,0,0,0-1.7.1l-1.1-.8a5,5,0,0,0-1.3-.4c-.4,0-.7.3-1.4.4.7.1,1.1.4,1.5.4.7,0,1.4.3,1.4.8.3.9,1.3,1.1,1.7,1.8C304.3,423.6,304.3,423.6,303.4,421.9Z"/><path class="cls-1" d="M151.6,414a4,4,0,0,0-3.3-.9c-.4,0-.8.3-1.1.1-1.4-.5-2.3.1-3.6.5.8,1.1.8,1.1,1.4,1.2s1.2.3,1.8.4a.89.89,0,0,1,.7,1.1,3.75,3.75,0,0,1-.7,1.2,7.63,7.63,0,0,0-.8,1.1c1.2,1.2,2.5,1.8,4.1,1.1,1.1-1.6,1.1-1.6.8-3.1.1,0,.3-.1.4-.1a1.12,1.12,0,0,0,1.2-.9A2.37,2.37,0,0,0,151.6,414Z"/><path class="cls-1" d="M273.9,430.6a5.64,5.64,0,0,0-1.2.4c-.4.3-.7.8-.4,1.2a2,2,0,0,0,.8,1c1.1.1,2.2-.4,2.3-1.1C275.9,431.2,275.2,430.4,273.9,430.6Zm.7,1.6c-.1.3-.5.3-.7.4-.7-.1-.8-.5-.7-1a.89.89,0,0,1,.8-.5A.75.75,0,0,1,274.6,432.2Z"/><path class="cls-1" d="M158.4,407.7a4.51,4.51,0,0,0-1.3.1c-.3.1-.6.4-.4.6s.4.7.7.7.9,0,1-.3C158.6,408.7,158.4,408.3,158.4,407.7Z"/><path class="cls-1" d="M166.2,416.1c.4.1.7,0,1.1.1a15.69,15.69,0,0,1,2.4.3c.8.7.8,1.7,1.9,1.8a1.74,1.74,0,0,0,.7-.3c1.1-.4,1.5-.4,2.3.6.3.3.4.6.7.8a.94.94,0,0,0,1.4-.4,20.93,20.93,0,0,1,.5-2.1,5.58,5.58,0,0,0-4.8-2.4,5.87,5.87,0,0,1-2.3-.4,3.49,3.49,0,0,0-3-.1,8.6,8.6,0,0,1-1.6.1,4.51,4.51,0,0,0-.3,1.1C165.2,415.8,165.8,415.9,166.2,416.1Z"/><path class="cls-1" d="M240.4,417.2c-.4-1.3-.4-1.3-1.9-.7C239.1,417,239.5,417.6,240.4,417.2Z"/><path class="cls-1" d="M236.2,416.7c-.1,0-.1.1-.3.3v.1c.7.7,1.3,1.3,2,1.9.4.4.8.3,1.3-.1l.4-.4c.1-.1.5.1.4-.3a.78.78,0,0,0-.4-.4c-1.2.1-2-.6-2.9-1A1.09,1.09,0,0,0,236.2,416.7Z"/><path class="cls-1" d="M167.7,409.7a2.85,2.85,0,0,0,2.4.6,13.7,13.7,0,0,0,.8-1.4c-1.5-.3-2.6-.6-3.7-.7C167.4,409.2,167.4,409.4,167.7,409.7Z"/><path class="cls-1" d="M266.1,414.2c0,.3.1.4.3.7a2.6,2.6,0,0,0,.7-.3c-.1-.3-.3-.4-.4-.7C266.5,413.9,266.1,414.1,266.1,414.2Z"/><path class="cls-1" d="M241.5,420.2a13,13,0,0,0-2.2.3A1.86,1.86,0,0,0,241.5,420.2Z"/><path class="cls-1" d="M308.6,422.8c.1.1.4.4.6.4s.3-.3.6-.4a3.74,3.74,0,0,0-.7-.6C308.8,422.2,308.5,422.3,308.6,422.8Z"/><path class="cls-1" d="M296.4,426.4a3.08,3.08,0,0,0-.9,4.1,2.87,2.87,0,0,0,2.7,1.5c.9-.1,1.3-.8,1.7-1.7a2.6,2.6,0,0,1,.4-1,5.26,5.26,0,0,0-.4-1.8A2.44,2.44,0,0,0,296.4,426.4Zm2.9,3.8c-.1.3-.7.1-.9.3s-.4.4-.9.8a4.2,4.2,0,0,1,.3-1.4c-.9-.3-1.9-.6-1.9-1.7,0-.6.4-.8,1.6-1.1.5.7.3,2.1,2.1,1.5C299.4,429.3,299.4,429.8,299.3,430.2Z"/><path class="cls-1" d="M304.2,428.9a2.2,2.2,0,0,0,.1,3.1,2.23,2.23,0,0,0,2.4.3c.7-1,1.4-2,2.1-2.9-1-.3-1.8-.6-2.7-.8A1.4,1.4,0,0,0,304.2,428.9Z"/><path class="cls-1" d="M234.4,417c-.4,0-1.1-.7-1.8.1a15,15,0,0,1,1.3,1.1c.3.6.4,1,1.1,1.1.8-1,.8-1-.3-1.7C234.5,417.7,234.5,417.2,234.4,417Z"/><path class="cls-1" d="M228.8,415a12.23,12.23,0,0,1,.3,1.7,2.75,2.75,0,0,0,2.9-.1,5.78,5.78,0,0,1,.6-1.7C230.4,414.3,230.4,414.3,228.8,415Z"/><path class="cls-1" d="M726.3,409.3a1.35,1.35,0,0,0-1.5.9,1,1,0,0,0,.8,1.3,1.08,1.08,0,0,0,1.3-.9A1,1,0,0,0,726.3,409.3Z"/><path class="cls-1" d="M725.5,403.7v-.9c0-.7-.3-1-.8-1-.3,0-.6.3-.8-.1a3.11,3.11,0,0,0,.4-.6,1.14,1.14,0,0,0,.3-.6.65.65,0,0,0-.6-.6,2.83,2.83,0,0,0-1.8.4,2.15,2.15,0,0,0-.4.7c.7.6,1.2,1,1.8,1.6v1.1c1.1.7,1.1.7,1.8.3C725.5,404,725.5,403.8,725.5,403.7Z"/><path class="cls-1" d="M721.8,405.1a.82.82,0,0,0,1.2,0,.67.67,0,0,0,.1-1C722.2,404.1,722.2,404.1,721.8,405.1Z"/><path class="cls-1" d="M722.1,409.7q-.6-.15-.9.6a.61.61,0,0,0,.3.7c.4.1.9-.1.9-.4A.76.76,0,0,0,722.1,409.7Z"/><path class="cls-1" d="M728.7,389.6a2.15,2.15,0,0,1-.7.4v.4a.82.82,0,0,0,1.2-.1A.57.57,0,0,0,728.7,389.6Z"/><path class="cls-1" d="M726.2,397.4c-.1.3-.1.5-.6.5-.3-.4-.4-.8-1-.8s-.6.7-.8,1.1c-.7-.1-1,.3-1.3.8.6.5.6.5,1,.5v-.7a6.15,6.15,0,0,1,1.8-.3,2.25,2.25,0,0,0,1.5-.5,2,2,0,0,0,.8-1.2,1.47,1.47,0,0,0-.4-1.2v-.3a4.17,4.17,0,0,0-.6.8C726.5,396.6,726.3,397,726.2,397.4Z"/><path class="cls-1" d="M728.1,364.8c.1-.1.1-.4.3-.7-.4-.3-.9,0-1.2.3C727.5,364.9,727.8,364.9,728.1,364.8Z"/><path class="cls-1" d="M727.1,361c.6.1.7,0,.9-.3v-.3c-.3-.3-.6-.3-1,0a.44.44,0,0,0-.1.3A1.24,1.24,0,0,0,727.1,361Z"/><path class="cls-1" d="M730.4,353.3a.85.85,0,0,0-.6-.3c0,.1-.1.1-.1.3a3.55,3.55,0,0,1,.1.7C730.1,353.7,730.3,353.4,730.4,353.3Z"/><path class="cls-1" d="M714.5,409a4.22,4.22,0,0,0,.3,1.2h0a7,7,0,0,0-.3-1.2Z"/><path class="cls-1" d="M721.4,406.4c-.4-.4-.6-.7-1.2-.4s-.6.7-.6,1.5c.4.4.8.9,1.4.6A1.79,1.79,0,0,0,721.4,406.4Z"/><path class="cls-1" d="M721.6,403.3c-.3,0-.4-.1-.6-.1s-.4.1-.4.3v.6c.1.1.3.1.6.1C721.6,404,721.6,403.7,721.6,403.3Z"/><path class="cls-1" d="M718.8,411.9c-.1.1,0,.4.3.4s.4,0,.4-.3a1.74,1.74,0,0,0-.3-.7A.92.92,0,0,1,718.8,411.9Z"/><path class="cls-1" d="M717.3,407.8a.76.76,0,0,0-.7.1.6.6,0,0,0-.1.4c-.1.5,0,.9.3.9s.7-.1.7-.5v-.5A.43.43,0,0,0,717.3,407.8Z"/><path class="cls-1" d="M707.9,354.6c.3-.1.4-.3.1-.9-.3.1-.4.3-.6.4C707.5,354.8,707.6,354.8,707.9,354.6Z"/><path class="cls-1" d="M704.1,391.2a.55.55,0,0,0-.4.6.32.32,0,0,0,.3.3.53.53,0,0,0,.6-.6v-.3C704.3,391.1,704.3,391.1,704.1,391.2Z"/><path class="cls-1" d="M704.1,390s.1.3.3.3.4-.1.4-.4a1.55,1.55,0,0,0-.3-.6A5.74,5.74,0,0,1,704.1,390Z"/><path class="cls-1" d="M706,362.1a2.59,2.59,0,0,1-.7,1.1v2.3c.3.1.6,0,.6-.1a8,8,0,0,0,.7-2C706.9,362.7,706.6,362.2,706,362.1Z"/><path class="cls-1" d="M705.8,356.4c.5.1.8-.3,1.2-.6.1.4-.1,1,.3,1s.5-.3.7-.7a2.1,2.1,0,0,1-.8-.6,2.35,2.35,0,0,1-.5-1,.82.82,0,0,0-1.2-.1l-.1.1v1.6C705.4,356.3,705.5,356.4,705.8,356.4Z"/><path class="cls-1" d="M731.9,362a.68.68,0,0,0-.9.6c0,.3.1.4.3.4a.67.67,0,0,0,.7-.4A3.54,3.54,0,0,0,731.9,362Z"/><path class="cls-1" d="M730,368.3c0-.1-.3-.3-.4-.4a3.29,3.29,0,0,1-.6-.6,4.54,4.54,0,0,1-1.4.6c-1.1-.7-.7-2.1-1-3.2a5.64,5.64,0,0,0-.7.1c0,.1-.1.3-.1.4v.4c-1.1-2.8-1.9-5.9-2.8-9.1.1-.1.3-.6,0-.8a5.94,5.94,0,0,0-.4-.8c-.4-1.9-.8-4-1.1-6.1,0-3.6-2.7-23.8-2.8-27.4-.1-5.8.5-23.4-.6-30.6.3-12.7.1-23.2.9-35.2.7-11.3.2-31.5.2-39.1.1-41,.7-88,1.7-128.4.4-20.1-1.7-50.5-1.2-70.9l.1-4L711.3,1.5h-6.4V.1L699.5,0V1.5l-238.2,4L296.5,2.9H13.9L12.2,5.5A4.82,4.82,0,0,0,9.7,7.4a4.06,4.06,0,0,0-.4,1.9L6.1,14h4.4c.7,1.9,1,3.9-.4,5-1.9.7-4,.6-5.9,1.1a1,1,0,0,0-.3.1v-.3H0v.7H2.8C1.4,21.4.3,22.7.6,24.2s1.8,2.5,3,3.6a10.1,10.1,0,0,1,1.9,2.3l-1.4.4v2.2l1.1.4,1.2-1.4a31.91,31.91,0,0,1,2.3,8.7c.3,1.4.4,2.8.8,4.1-.1,0-.3.1-.4.1L6.5,45.7,5.7,45,6,48.7l5.8,4.8L5.7,56c.3,9.1.8,18.3,1.8,27.4l2.5.8L8.8,88.6c-.7,2.6-1.1,7.8-.6,9.8l2.2,1.4-.4,3.3c-1.9,53.1,4.1,122.8,5.6,178.5.6,22.3,1.2,61.7,1.2,84a18.44,18.44,0,0,0-1.2,9,46.42,46.42,0,0,0,1.1,6.5v2.3l.7.7a42.12,42.12,0,0,1-.1,14.6c-.4,2.5-1,5.6,1.2,6.9a5.66,5.66,0,0,0,2.9.7,8.93,8.93,0,0,0,2.9-.3v.1h-.7l5.6,5.5,47.1-1.5a4.14,4.14,0,0,0,2.3.6,6.55,6.55,0,0,1,1.4,0c1,.3,1.7.3,2.3-.4.3-.3.8-.1,1,.4.1.7.7.6,1.2.4s.7-.6.6-1.1h0l6.9-.3a2.06,2.06,0,0,0-1,1.7c-.1.6.4,1.2,1.2,1.5a4.92,4.92,0,0,0,2.9.4,4.07,4.07,0,0,1,2.2.1,13.52,13.52,0,0,0,3.4,1.1c1.4.3,2.9,1.5,4.4.4.8,0,1.8.1,2.6.1.1.3.3.7.4,1a9.5,9.5,0,0,0,1.8-.6c-.1-.7,1.1-1.4-.1-2.2-1.2.6-2.3.1-3.6-.4-.1-1-.3-1.8-1.5-2.1-.1,0-.3-.3-.4-.4a2.54,2.54,0,0,1-1.1-1.2l31.2-1.1a1.54,1.54,0,0,0,.6.4,4.27,4.27,0,0,0,2.9,1,3.57,3.57,0,0,1,3.3,1.7,1.14,1.14,0,0,0,.8.7.63.63,0,0,0,1-.4c0-.1-.1-.4-.1-.6,0-.4.3-.6.7-.7a2,2,0,0,1,.8.1,17,17,0,0,0,2.2.4c.7,0,1.1-.8,2.1-.7.6-.4,1-1,1.7-1.5.4.3.7.4,1.1.7,0,.7-.6.7-.8,1s-.6.4-.8.7c.6,1,1.5.7,2.2.6.1.1.4.1.4.3a4.48,4.48,0,0,0,2.5,2.2c1.2.6,2.1,1.7,3.7,1.9a8.34,8.34,0,0,1,1.2-.4c.4-.1.4-.8,0-1.1a8.43,8.43,0,0,0-1.4-.6,1.18,1.18,0,0,1-1.1-1.1c.4.1.8.3,1.2.4,1.1.4,1.2.4,2.1-.4l.7-.7a10.67,10.67,0,0,0,4.1,2.1c.1-.6.6-.7,1.1-.7a11.52,11.52,0,0,0,2.1-.6c1.1.1,2.1,1.7,3.7.7,1.1-.6,2.8,0,3-1.7a9.66,9.66,0,0,1,1.8.3,6.54,6.54,0,0,0,2.3,4.1c.6.4,1,1,1.5,1.4.8.7,1.2.7,2.5,0,.3.6.4,1.1.7,1.8a8.87,8.87,0,0,0,4,.6,4.2,4.2,0,0,0,.8-2.6c0-.3.6-.7,1-1.1-1-1.7-.3-3.2.3-5a5.77,5.77,0,0,1,.8,1,4.18,4.18,0,0,0-.8,1.2,1.28,1.28,0,0,0,.3,1.7,3.75,3.75,0,0,1,1,.1c.4,0,.7.1,1.1.1.4.4-.1.4-.3.7s-.3.4-.4.7-.3.7.1,1a.78.78,0,0,0,1.1,0c.1-.1.3-.1.4-.3.3.4.3.7-.1.8a10.56,10.56,0,0,1-1.9.6c-.7.1-1.1.4-1.1,1.1a3.81,3.81,0,0,0,1,.3,12.29,12.29,0,0,0,3.7-.8c1.2-.5,2.8-.7,4.1-1.1a5.27,5.27,0,0,0,1.2-.3c.4-.1.6-1,.3-1.2a2.11,2.11,0,0,0-1-.4,1.1,1.1,0,0,0-.6.3c-.3,0-.4.1-.7.1a7.63,7.63,0,0,0-1.1-.8,3.29,3.29,0,0,0-.6.6h-.1a7.84,7.84,0,0,1-1.5-1v-1a6.39,6.39,0,0,1,1.9-.8c.8-.3,1.5.3,2.2.8a2.15,2.15,0,0,0,.4.7,4.9,4.9,0,0,0,2.5.7c.1-.4.4-.8.3-1.1-.6-1.5,0-2.6,1-3.9.1-.3.3-.4.6-.8l1,1c-.6.3-1.1.6-1.1,1.1-.7.4-.1.8.1,1.1a1,1,0,0,0,1.4,0c.3-.3.4-.8.7-1.2,1.1.7.8,1.8,1.1,2.6a8.54,8.54,0,0,0-1.4,1.1c-.7.7-.6,1.5.4,2.1.4.3,1,.4,1.4.7a4.51,4.51,0,0,0,1.7-2.5c.3-1.2,1.8-1.7,3.2-.8.7.4,1,.1,1.2-.3-.6-1.2-2.3-.8-3-1.9.7-1,2.1-1.2,3-1.9a3.62,3.62,0,0,1,1.4.1c.3,1.7-.7,3.3,1.1,4.8.7-.6,1.7-.3,2.3-1s1.4-.3,2.1-.3a10,10,0,0,1,1-1.1c.3.1.4.4.6.4,1.2-.3,2.3.8,3.6.6.8-1,.8-1,1.9-1.1.4-.6-1-1-.4-1.5,1-.1,1.8.6,2.8.7a10,10,0,0,0,1.1-1,5.64,5.64,0,0,1,.7-.1c.3.6.6,1.1.8,1.5a1.87,1.87,0,0,0,1.4,1c.4,0,.7.1,1.1.1a1.92,1.92,0,0,0,2.1-.8,2.41,2.41,0,0,1,.6-.8c.4.3.8.4,1.1.6.1-.1.3-.3.3-.4-.8-.8-.7-2.2-1.8-3a5.64,5.64,0,0,1-1.2.4,6.48,6.48,0,0,1-1.4,0v1c-1.1.1-1.9-.1-2.3-1.2a2.84,2.84,0,0,0,.8-1.1,4.8,4.8,0,0,0,0-1.2c.7-.4,1.5-.7,2.2-1.1a17.91,17.91,0,0,0,1.8,1.4c.7-.3,1.2-.6,1.8-.8a9.5,9.5,0,0,1,1.8-.6,2.41,2.41,0,0,0,.6.8h1.9c.1-.1.3-.3.1-.4a1.74,1.74,0,0,0-1.1-1.5c-.3-.1-.4-.3-.7-.6a.1.1,0,0,1,.1-.1l3.3-.1a1.67,1.67,0,0,1,1.2,1.1,1.76,1.76,0,0,0-1.9.6c0,.1-.1.3-.1.4a26.53,26.53,0,0,0,.6,3c1.1.4,1.1-.6,1.7-1.1a8.54,8.54,0,0,1,1.1,1.4c-1,.3-1.8.4-2.8.7a7.08,7.08,0,0,1-.1,1.5,23,23,0,0,0-2.6.3c-.1,1.1.7,1.4,1.7,1.7.4-1.4.6-1.5,1.9-1.2a1.35,1.35,0,0,0,1.4-.4c.1-.3.3-.4.4-.8a3.88,3.88,0,0,0,1.4.6,5.55,5.55,0,0,0,1.7-.3c.4.4.8.8,1.4,1.5a10.24,10.24,0,0,0-3.3.6,5.77,5.77,0,0,1-2.6-.1h-1.5c.3.7.1,1.2.7,1.7.4.4,1,.6,1.5,1v1.6c1.4.3,1.5.3,1.7-.7v-.7c.6-.4,1.1,0,1.5.1a5.69,5.69,0,0,0,4.4.3,3.54,3.54,0,0,1,.3-1.1,2,2,0,0,1,.8-.1,5,5,0,0,0-.4-1.9,2.56,2.56,0,0,1,0-2.9,38.38,38.38,0,0,1,4,1.1,3.74,3.74,0,0,1-.7.6,3.29,3.29,0,0,1,.6.6c-.3.6-.6,1.2-1.1,2.1.1.1.3.7.6,1.2a3.65,3.65,0,0,0-2.1,2.3,2.29,2.29,0,0,1-.7,1,1.08,1.08,0,0,0,.1,1.8c.1.1.1.3.1.6a4.07,4.07,0,0,0-1.1.6,7.26,7.26,0,0,1-.6,1.4c.7.4.7-.6,1.2-.6a7.6,7.6,0,0,0,1.4-.1c0-.4.1-.8.1-1.4.4,0,.8.1,1.1.1a11.27,11.27,0,0,0,1.8.3c.7,0,1.7.3,2.2-.4a2.92,2.92,0,0,0,1.1-2.1v-1.2c.6-.1.6.3.7.6a1.92,1.92,0,0,0,1.5,1.1c.8.1,1.4-.1,1.5-.8a7,7,0,0,1,.3-1.4c-1.1-.8-1.1-.8-3-.7a26.53,26.53,0,0,1,.6-3c.6-.4,1.2-1,1.9-1.5.4.1.8.4,1.4.6.3-1.2-.3-1.5-2.8-1.5-.4-.6,0-1.1.3-1.5s.8-.8.6-1.4c-.1-.3,0-.6.4-.6.6-.1.7.3.7.6l.1.1a1.06,1.06,0,0,0,.1-1.2l4.3.7a4.37,4.37,0,0,0,.8,1.7s0,.3-.1.4c-1.2,0-1.8-1.5-3.2-1.2a1.14,1.14,0,0,0,.3.6v.4h-1.4c.1.3.3.4.4.6.4.4.6.6.6,1.1,1.1.1,1.1.1,2.2,1.1-.1.8-1.2.6-1.7,1.1.1.6-1,1.2.3,1.8a2.43,2.43,0,0,0,2.2-1.5c.4-.7.3-1.7,1.4-1.8.1-.4.3-1,.4-1.4a1.21,1.21,0,0,1,.7-.7c.3,0,.6.3,1,.6-.7.4-1.1.6-1.7,1a9.92,9.92,0,0,1,.3,1.5,9.43,9.43,0,0,1-1,1,5.36,5.36,0,0,0-1.9,3.6,2.62,2.62,0,0,0,1.5,2.8,6.4,6.4,0,0,1,1.1.6c-1.8.3-2.3,1.5-3.2,2.5.4,1.1.7,2.1,1.1,3.2.6.4,1.1,1,1.8,1.5a3.15,3.15,0,0,0,1.5.8,2.59,2.59,0,0,0,3.6-1.5,4.14,4.14,0,0,0-1.4-5.1c-.4-.3-.8-.6-1.4-1.1a43,43,0,0,0,6.2-.4,17.38,17.38,0,0,0-1.5-1.1,3.42,3.42,0,0,1-1.4-1.9c-.3-.8-.4-1.5-.7-2.6l.7-.7a4.12,4.12,0,0,1,.8-.3,4.61,4.61,0,0,0,3.4-3.9,10.59,10.59,0,0,0,1.2,1,6.55,6.55,0,0,0,3.9,2.1,3.75,3.75,0,0,0,.7,1.2c.7,0,1.4-.3,1.9-.1s1.1.4,1.8.1c-.3-.6-.7-1.1-1.1-1.8,1.2-.1,2.3-.3,3.6-.3-.3.7-.6,1.1-1.4,1.1.3.1.3.3.4.3a1.18,1.18,0,0,1,1.2.7c.7,1.8,2.3,1.7,3.9,2.1a3.29,3.29,0,0,1,3,.7c.1.1.4.1.6.3.8-.3-.4-1.2.7-1.5.4-.1.4-1,.8-1.4s.7-.4,1.4.3a3,3,0,0,0-.7,1,3.38,3.38,0,0,0,.6,1.2,10.42,10.42,0,0,0-1.8,1c-.1.1-.3.4-.1.6a.78.78,0,0,0,.4.4c1.2.1,2.3.3,3.6.3.3,0,.7-.3,1-.4s.4-.4.8-.8a15.05,15.05,0,0,1,1,1.7,7.6,7.6,0,0,1,1.4.1.6.6,0,0,1,.1-.4c-.3,0-.7,0-.8-.3a3.29,3.29,0,0,0-1.7-1.8,5,5,0,0,0-2.8-2.3,1.4,1.4,0,0,1-.4-.7c1.2,0,2.3.1,3.6.1,0-.1,0-.1-.1-.3l1.9.3c0,.1.1.1.1.3-.7.1-1.8-.4-2.1.7.7.6,1.7,0,2.3.3,0,.8-1.2.3-1.2,1.1.6.3.6.4,1.2.3a22.6,22.6,0,0,0,.1-2.6l.4.1,400.2-5.8,7.4-10.6h-.8a.6.6,0,0,0-.1-.4,1,1,0,0,0-1-.3,1.14,1.14,0,0,0-.3.7h-1a15.71,15.71,0,0,0,1.4-2.5,5.33,5.33,0,0,1-.4-3.7c1,0,1.8-.1,2.8-.1v4.7l1-1.4-.3-3.4h.3c.1-1.5.3-3,.4-4.5a3.54,3.54,0,0,0,.3-1.1,1,1,0,0,0,.3-.1.53.53,0,0,0,.6-.6c0-.3-.6-.4-.8-.3a.1.1,0,0,0-.1.1h0v-1.2c.3-.3.4-.3.8.1a1.31,1.31,0,0,0,1,.3c.6,0,1-.1,1.5-.1.3,0,.4.1.7.1a9.08,9.08,0,0,0-.7,1.4,2.81,2.81,0,0,0,.8.1.89.89,0,0,1,.7,1.1.8.8,0,0,1-1.2.3c-.1-.1-.3-.3-.3-.4s-.1-.4-.3-.6c-.4,0-.8-.3-1.2,0v.8c-.3.4-1,.1-1,1a4.74,4.74,0,0,0,1,1v.8c0,.6-.1,1-.6,1.2-.7.6-.8,1.1-.6,2.2.6-.3,1-.6,1.4-.8.1.3,0,1,.4.8.6-.1,1.1.3,1.7.3,0-.7.6-1.1.8-1.5.4.1.7.3,1,0,.1-.3.1-.6.3-.8a5.64,5.64,0,0,0-.1-.7c-.8-.1-1,.6-1.4,1.1-.8-.3-1.1.3-1.5.8-.4-.1-.4-.1-.8-1.2a2.71,2.71,0,0,0,1.9-1.4c0-1-.8-.1-1.1-.7a2.41,2.41,0,0,0,.8-.6c.1-.1.4-.1.4-.3.3-.8,1.1-.6,1.5-.7.4-.6.7-1.1,1.1-1.8a10.59,10.59,0,0,1-1-1.2c-.4-.4-.7-.8-1.1-1.2a1.5,1.5,0,0,1-.4-1.1c.1-.8-.7-1.2-.7-2.1,0-.1-.3-.3-.6-.4a7.63,7.63,0,0,0,.8-1.1c-.3-.4-.4-.8-.6-1.1a30,30,0,0,1,1.1-2.9c0-.1.1-.3.1-.4l.1.1a9.83,9.83,0,0,1,1.1-3.9,13,13,0,0,1-.8-1.7,3.4,3.4,0,0,1,.1-1,5.27,5.27,0,0,1,1.2.3c.3,0,.6.1.7,0a.71.71,0,0,0,.7-.8C730.5,368.7,730.1,368.9,730,368.3ZM204.1,412.9c-.7,0-.8-.4-1-.8h.1a1.15,1.15,0,0,1,1,.1A5.64,5.64,0,0,1,204.1,412.9Zm61.5,5.3a3.11,3.11,0,0,1,.4.6,1,1,0,0,1-1.5.8c-.1,0-.3-.3-.3-.4A1,1,0,0,1,265.6,418.2ZM25.9,37.1l-2.1,1.2a9.7,9.7,0,0,0-.1-1.7ZM96.6,410.9c-.3,1-.4,1-1.8.6,0-.6-.1-1.2-.1-1.8l2.2-.1A3.45,3.45,0,0,1,96.6,410.9Zm46.8-2.3a1.54,1.54,0,0,1-.6.4c-.6-.1-.8-.7-1.2-1l2.5-.1C143.8,408.1,143.7,408.4,143.4,408.6Zm13.2,2.4a2.05,2.05,0,0,1-1.1,0,1.21,1.21,0,0,1-.7-.7c-.1-.3.1-.4.6-.6s.7-.6.4-.8c-.1-.3-.7-.3-1-.4s-.6.3-.8.3a1.28,1.28,0,0,1-1-.4c-.1-.1-.1-.4-.1-.7l2.3-.1h.1l3.6-.1a.91.91,0,0,0,.4.8c.1.1,0,.7,0,1,0,.6.1,1.1.1,1.7A3.38,3.38,0,0,0,156.6,411Zm17.1.7a1.36,1.36,0,0,1-1.5.6c-1.9-.7-4-.8-5.9-2.2.6-1.1-.1-1.8-1.2-2.3a5.94,5.94,0,0,1-.8-.4l5-.1c.6.3,1.1.7,1.7,1,.4.3.8.3,1.1-.3.1-.3.3-.4.4-.7a.1.1,0,0,0-.1-.1h1.2a1.14,1.14,0,0,0,.3.6c-.4.4-.8.7-.3,1.2s.4.7.1,1.2C173.4,410.4,173.7,411.1,173.7,411.7Zm5.8-3.9c-.1-.4-.6-.7-.8-1h1.7a5.37,5.37,0,0,1,2.2,2.5,4.41,4.41,0,0,0-1.2,1.1A15.05,15.05,0,0,1,179.5,407.8Zm1.5,7V414c.8-.3,1.7-.4,2.8-.7a8.34,8.34,0,0,0,.4,1.2C183.1,414.7,182.1,414.7,181,414.8Zm3.2-6.6c.3-.1.7-.3,1.1-.4a10.34,10.34,0,0,1,.3,1.2C184.8,409.3,184.4,409.1,184.2,408.2Zm3.7,5.3c-.1.3-.3.8-.6.8a3.47,3.47,0,0,0-1.9,1.2,1.42,1.42,0,0,1-.6-1.7,2.59,2.59,0,0,0-.3-1.9c-.6-.8,0-1.5.7-2.3a3.54,3.54,0,0,1,1.1.3c.1,0,.6.3.6.4C187,411.3,188.3,412.2,187.9,413.5Zm0-3.9h-.4a.6.6,0,0,1-.1-.4,1.1,1.1,0,0,1,.3-.6c.1-.1.4,0,.6,0s.1.3.1.4S188.1,409.3,187.9,409.6Zm10,2.4a1.58,1.58,0,0,1-1.1-1.7,27.61,27.61,0,0,1,.6-4h.7a12.23,12.23,0,0,1,1.7.3,4.62,4.62,0,0,1-1,.7c-1.2.8-1.1,1.9.3,2.8.1.1.4.1.6.3s.4.7.1,1A3.88,3.88,0,0,0,197.9,412Zm1.7,3.1a6,6,0,0,1-1.1-.6,3.81,3.81,0,0,1,.3-1c.1-.7.7-.8,1.5-.8.7.6.7,1.2,1,1.9A1.11,1.11,0,0,1,199.6,415.1Zm7.5,2.2a11,11,0,0,0-1.1-1.2c.4,0,.7-.1.8,0C207.6,416.4,207.6,416.8,207.1,417.3Zm-.9-10.7c.3-.6,1-.4,1.2-.8h.7C208,406.7,207.8,406.7,206.2,406.6Zm18.7,5.9c-.1-.3-.4-.7-.6-1.2a4.37,4.37,0,0,1,.8-.7c.6-.3.8-.1,1.1.6,0,.3.1.4.1.7C225.7,411.5,225.7,412.5,224.9,412.5Zm3.8-1.6c1.1,0,1.1,0,1.5.8C229.6,411.7,228.9,411.7,228.7,410.9Zm1.4-5.7c-.1,0-.1-.1-.3-.1h1.1A1.06,1.06,0,0,1,230.1,405.2Zm18.2,5.5a.63.63,0,0,1-.8-.4c-.1-.1-.1-.4-.1-.6.3,0,.4-.1.7,0a.73.73,0,0,1,.6.7C248.6,410.4,248.4,410.6,248.3,410.7Zm12.2,5.1c-.6-.1-1.4,0-1.8-1,1,.3,1.9-.8,2.8.7C261.1,415.7,260.8,415.9,260.5,415.8Zm1.1-2.6a.87.87,0,0,1-.8-.6c0-.1,0-.3.1-.3h.8c.3,0,.4.1,1,.6A4.55,4.55,0,0,1,261.6,413.2Zm15.2,14.3a7,7,0,0,1-2.8.4c-.4-1-.4-1,.6-1.7C276.2,426.8,276.2,426.8,276.8,427.5Zm-.7-8.9c-.7-1-1.9-1.4-2.6-2.5a16,16,0,0,1,1.9-.7c.7,1.7.7,1.7,2.6,2.6C277.3,418.3,276.6,418.4,276.1,418.6Zm24.8-4.3c-.3-.1-.4-.3-.6-.6l.8.1C301,414,301,414.2,300.9,414.3ZM712,381.4a1.4,1.4,0,0,0-.8,1.2l-.3.3c-.1.1-.3.1-.4.3-1,.1-1.1.1-1,.7-.3.1-.4.3-.6.4-.1-.1-.1-.3-.3-.3a2.83,2.83,0,0,0-.6.3,3.11,3.11,0,0,0,.6.4l-.1.1a5.3,5.3,0,0,0-.6,1v-.4c.1-.3-.1-.3-.3-.3s-.3,0-.3.1a4.74,4.74,0,0,1-1,1c-.1,0-.1.3-.3.4l.4.4c.1.1.1.4.3.6a3.54,3.54,0,0,1,.6-.1,16.72,16.72,0,0,1-3.6,5.9c-.3-.1-.4.1-.6.4v.1h.1c-.1.1-.3.3-.3.4h-.3c-.1.3-.3.4-.6.7s-.6.4-.8.7a29.08,29.08,0,0,0-3,.1c-.1-.1-.3-.1-.3-.3s.3-.4.4-.8c-1,.4-1.9.8-2.9,1.1-117.5,2.9-242.2,5.5-368.3,5.5H327L281.9,399c-17.6.4-34.4.7-51.6.7-34.1,0-63.4-.8-94.4-1.7-33-1-62.3-1.9-104.8-1.9H29.9v4.3c-1.5-1.2-3-2.3-3.2-4.1-.3-3.3,5.1-5.8,3.6-8.7a5.88,5.88,0,0,0-1.8-1.7,8.89,8.89,0,0,1-2.8-4.1v-1.1h1.9l.2-338.9-3.7-14c.7-4.5,1.9-9,3-13.6H308L398.9,21H707.6l1.6,254.1,1.5,13.5c-.1,12,.6,40.5-.1,52.6-.1,2.2-.3,4.4-.4,6.6h-.3a1.7,1.7,0,0,0-.1-.7c-.1.3-.3.6-.4.6a3.54,3.54,0,0,1-1.1.3c-.4,0-.7.1-1.1.1,0,.8,0,.8.6,1s1.5.3,2.1,1h.1a4.87,4.87,0,0,1-.1,1.2l-.1.1.1.1a9.7,9.7,0,0,1-.1,1.7c-.3.1-.4.3-.6,1,.3-.1.4-.3.6-.3-.1,2.5-.3,5-.4,7.4v.4a3.11,3.11,0,0,1-.4-.6h-.1c-.3.3,0,.4,0,.7s-.4.4-.1.7c.1-.1.3-.1.4-.3.1,0,.1,0,.3-.1V365c-.1,0-.1.1-.3.1-.8-.7-1.7-.1-2.6-.3a3.74,3.74,0,0,1-.6,1c.7.6.7,1.5,1,2.2h.6c.1.3.3.6,0,.8s-.4.4-.3.8c.7,0,.8-.4,1-1.1.4-.1.7-.3,1.2-.4a7.11,7.11,0,0,1-.7,1.5c-.1,0-.3.1-.4.1-.3.1-.6.1-.7.6s.3.4.6.6a1.22,1.22,0,0,1,1.2,1.4c0,.3.3.4.4.7.8-.1,1.5-.3,2.2-.4.1.1.1.4.3.6a3.88,3.88,0,0,1-.6,1.1.55.55,0,0,0,.3.8.85.85,0,0,0,.7,0C712.7,377.1,712.8,379.5,712,381.4Zm-3.3-14.6a4.87,4.87,0,0,0-.8,1,4.53,4.53,0,0,0,.1-.8C708.1,366.5,708.2,366.4,708.7,366.8Zm5.7.4h-.3v-1h.1v1Zm6.9.4h0v0Zm1.5,16.1h-.1v-1.5a1.1,1.1,0,0,0,.6-.3c.3-1.1-.8-1.9,0-3a1.38,1.38,0,0,1,.6,1.1A22.59,22.59,0,0,1,722.8,383.7Z"/><path class="cls-1" d="M700,393.8a3.11,3.11,0,0,0,.6.4.49.49,0,0,0,.1-.3c-.1-.1-.1-.3-.3-.4C700.3,393.7,700.2,393.8,700,393.8Z"/><path class="cls-1" d="M725.4,358.3a.55.55,0,0,0,.6.7c.3,0,.4-.1.4-.4a.68.68,0,0,0-.6-.9C725.8,357.9,725.5,358,725.4,358.3Z"/><path class="cls-1" d="M729,380.8a11.94,11.94,0,0,0-.8,1.6,1.09,1.09,0,0,0,.8,1,.67.67,0,0,0,.8-.3c.1-.3.3-.4.1-.7s-.1-.9-.4-1.1C729.4,381,729.1,381,729,380.8Z"/><path class="cls-1" d="M711.1,379.4c-.1,0-.1.3-.1.3,0,.3,0,.6.3.7a2.12,2.12,0,0,1,.7.3c0-.1.1-.1.1-.3a8.65,8.65,0,0,1-.7-1Z"/><path class="cls-1" d="M710,376a2,2,0,0,0-1.8.4,1.63,1.63,0,0,0-.3,1.5,2.59,2.59,0,0,0,.7,1.1,5.3,5.3,0,0,0,1,.6,2.39,2.39,0,0,0,1.5-2,1.26,1.26,0,0,0-.3-1.3C710.6,376.3,710.3,376,710,376Z"/><path class="cls-1" d="M722,349.2a.67.67,0,0,0,1,.1c0-.6-.3-.7-.9-.9A2.49,2.49,0,0,0,722,349.2Z"/><path class="cls-1" d="M707.4,351.6c.4.1.7-.1.7-.6a.7.7,0,0,0-.4-.9c-.4-.2-.9.1-.9.4A1,1,0,0,0,707.4,351.6Z"/><path class="cls-1" d="M709,380.8c-.1,0-.4.1-.4,0-.4-.6-1-.1-1.6-.4-.1,0-.3,0-.3.1-.1.4-.9.7-.6,1.2a2.25,2.25,0,0,1-.1.7l1-1c0-.3-.3-.6.1-.8a4.7,4.7,0,0,1,.9.6c-.6.4-1.1,1-.7,1.8a11.94,11.94,0,0,1,1.6-.8,1.14,1.14,0,0,0,.3.6c.9-.1,1.3-.8,1.7-1.8-.3,0-.6,0-.7-.1C709.8,380.5,709.4,380.7,709,380.8Z"/><path class="cls-1" d="M707.9,359.6c-.4,0-.9-.1-1.1-.1s-.3.3-.3.4v.4c-.6.1-1,0-1.3.5a1.84,1.84,0,0,0,1.6.5c0,.4-.3,1,.4,1.2a1.61,1.61,0,0,0,.9-.3c.4-.5-.1-.8-.3-1.2C707.8,360.6,707.9,360.2,707.9,359.6Z"/><path class="cls-1" d="M707.1,378.4c-.6-.3-1-.4-1.5-.7v2.6a2.77,2.77,0,0,0,.9-.1A6.36,6.36,0,0,0,707.1,378.4Z"/></svg>