<?xml version="1.0" encoding="utf-8"?>
<!-- Generator: Adobe Illustrator 24.0.1, SVG Export Plug-In . SVG Version: 6.00 Build 0)  -->
<svg version="1.1" id="Layer_1" xmlns="http://www.w3.org/2000/svg" xmlns:xlink="http://www.w3.org/1999/xlink" x="0px" y="0px"
	 viewBox="0 0 456.7 508" style="enable-background:new 0 0 456.7 508;" xml:space="preserve">
<style type="text/css">
	.st0{fill:#00FCFF;}
</style>
<path class="st0" d="M445.3,349.1c0.2,0.2,0.4,0.4,0.7,0.6c0.4,0.1,1.1-0.2,1.2-0.6c0-0.3-0.3-0.6-0.7-0.8
	C446,348.3,445.3,348.5,445.3,349.1z"/>
<path class="st0" d="M449.7,346.7c-0.4,0-0.8-0.1-1.3-0.1c0.4,0.2,0.8,0.5,1.2,0.8c0.3,0,0.3,0,0.4-0.1c0.6-0.1,1.1-0.5,0.6-0.8
	C450.3,346.2,450.3,346.8,449.7,346.7z"/>
<path class="st0" d="M446.9,342.7c-0.1,0.3,0.2,0.7,0.7,0.7c0.1,0,0.3,0,0.4,0c0.5,0,1-0.2,1.3-0.6c0-0.5-0.6-0.9-1.3-1
	C447.4,341.9,447.1,342.2,446.9,342.7z"/>
<path class="st0" d="M446.8,337.8c0.3,0,0.6-0.1,0.8-0.3c-0.3-0.6-1.1-0.7-1.9-0.8c-0.3,0.3-0.6,0.5-0.8,0.8
	C445.5,337.7,446.2,337.8,446.8,337.8z"/>
<path class="st0" d="M443,352.1c0,0.7,0.1,1.2,0.8,1.3c0.5,0.1,0.8-0.4,1.2-0.6c0.1-0.1,0.1-0.3,0.4-0.7
	C444.6,352.1,443.8,352.1,443,352.1z"/>
<path class="st0" d="M441.9,356.2c1.2-0.3,1.2-0.5,2-0.1c0.9,0.3,1.9,0.4,2.8,0.3c0.1-0.2,0.4-0.3,0.5-0.6c-0.7-0.6-1.5-1-2.3-1
	c-0.7,0.1-1.4-0.1-2-0.3c-0.1-0.1-0.5,0.1-1.2,0.2C443.6,355.3,441.3,355.6,441.9,356.2z"/>
<path class="st0" d="M451.8,323.3c-0.3,0.4-0.4,0.9-0.5,1.3c-0.9,0.2-1.6,0.7-2,1.2v0.3c0.4,0.1,0.8,0.3,1.2,0.5
	c0.1,0.8-0.5,1.5-0.1,2.1c0.4,0.6,0.1,1.5,1.3,2.1c0.1-0.8-0.4-1.2,0-1.8c0.7-0.8,1-1.7,0.8-2.6c0-0.7,0.3-1.3,0.3-2
	c0.1-0.5,0.1-1.1,0.1-1.6c-0.4-0.2-0.8-0.3-1.2-0.5C451.1,322.6,452,322.9,451.8,323.3z"/>
<path class="st0" d="M441.8,320.4l0.4,0.3c0.3,0.1,0.6,0.4,0.9,0c0.1-0.2,0.1-0.4,0.1-0.6c-0.3-0.1-0.6-0.2-0.9-0.2
	C442.2,320.1,442,320.3,441.8,320.4z"/>
<path class="st0" d="M444.6,321.7c-0.1,0.8,1.3,0.8,0.9,1.5c1-0.2,1.7-0.7,1.8-1.4c0.1-0.4-0.3-0.8-0.8-1c-0.3,0.4-0.4,0.7-0.6,1
	C445.2,322.1,445.1,321.3,444.6,321.7z"/>
<path class="st0" d="M438.4,358.5c0,0.1,0.4,0.2,0.7,0.3c0.2-0.1,0.3-0.2,0.4-0.3c0-0.4,0.1-0.9-0.6-1.2
	C438.5,357.6,438.3,358.1,438.4,358.5z"/>
<path class="st0" d="M446.9,333c1.6,0.6,1.7,0.6,2.3-0.6c-0.6-0.4-1.5-0.5-2.2-0.2C447,332.5,447,332.7,446.9,333z"/>
<path class="st0" d="M445.4,335.4c-0.1,0.2-0.1,0.4,0,0.6c0,0.1,0.4,0.2,0.4,0.2c1.1-0.3,1.7,0.1,2.6,0.3c0.3-0.2,0.5-0.4,0.8-0.6
	c-0.7-0.5-1.3-0.9-2-1.5C446.7,334.7,445.8,334.8,445.4,335.4z"/>
<path class="st0" d="M442.1,339.8c0.1,0.2,0.5,0.4,0.8,0.3c0,0,0,0,0,0l0.1,0c0.3-0.1,0.4-0.4,0.1-0.7c-0.3-0.2-0.6-0.4-0.9-0.6
	C441.8,339.1,441.8,339.5,442.1,339.8z"/>
<path class="st0" d="M440.6,350.3c0.3,0.5,0.5,0.8,0.8,1.2c0.3-0.1,0.5-0.2,0.7-0.3c-0.1-0.3-0.3-0.7-0.4-1c-0.8-0.4-1.6-0.7-2.4-1
	c-0.8,0.5-2,0.3-2.7,1c0,0.4,0.1,0.8,0.3,1.2c0.3,0.8,1.2,0.8,1.8,0.3c0.3-0.2,0.4-0.7,0.9-0.7c0.1-0.1,0.1-0.3,0.3-0.4
	C440.1,350.5,440.4,350.3,440.6,350.3z"/>
<path class="st0" d="M437.4,354c0.5,0.2,1,0.4,1.6,0.5v0.8c0.3,0,0.6-0.1,0.8-0.3c0.4-0.7,1-1.3,1.8-1.7c0.6-0.3,0.7-0.8,0.3-1.2
	c-0.1-0.2-0.2-0.4-0.3-0.6c-0.5-0.2-0.9-0.3-1.6-0.5c-0.1,0.6,0.5,1.2-0.4,1.6c0,0,0.1,0.4,0.1,0.6c0,0.2,0,0.5-0.1,0.7
	c-0.4-0.2-0.7-0.5-0.9-0.8c-0.3-0.2-0.3-0.5-0.5-0.8c-0.4,0.3-0.7,0.7-0.9,1c-0.1,0.2-0.1,0.4-0.1,0.6c0.3,0.7-0.3,1-0.7,1.5
	c0.3,0,0.4,0.1,0.8,0.1C437.1,354.9,437.2,354.4,437.4,354z"/>
<path class="st0" d="M443.5,332.1c-0.1,0.2-0.4,0.3-0.5,0.3c0.1,0.3,0.3,0.5,0.5,0.8c-1.5,0.2-2.8,0.3-3.3,1.4
	c0.7,0.1,1.1,0.2,1.1,0.6c-0.1,0.7-0.3,1.2-0.4,1.9c0,0.3,0,0.7,0.1,1c0.1,0.3,0.7,0.3,1.2,0.3c0.2-0.4,0.4-0.8,0.7-1.2
	c-0.5,0-0.8,0.1-1.3,0.1c0.1-0.6,0.3-1,0.4-1.6c0.7-0.2,1.3-0.3,1.6-0.8c0.5-1.1,0.7-2.3,0.5-3.4
	C443.6,331.6,443.6,331.9,443.5,332.1z"/>
<path class="st0" d="M440.7,360.1c0.5-0.3,0.9-0.6,1.5-1c-0.7-0.6-1.3-0.1-1.8,0C440.2,359.6,440.2,359.9,440.7,360.1z"/>
<path class="st0" d="M442.2,338.6L442.2,338.6C442.2,338.5,442.1,338.5,442.2,338.6z"/>
<path class="st0" d="M438.4,367.4c-0.1,0.5,0,0.9,1.3,1c-0.1-0.4-0.1-0.7-0.1-1.1c0-0.3,0.1-0.6-0.4-0.5
	C438.7,366.9,438.4,367.1,438.4,367.4z"/>
<path class="st0" d="M440.2,362.5c1.3-0.5,1.3-0.7,0.4-1.3C440.2,361.6,439.8,361.9,440.2,362.5z"/>
<path class="st0" d="M442.5,349.8c0-1,1.3-2,0.9-3.2c0-0.2,0.3-0.4,0.3-0.6c0.1-0.4,0.5-0.8,0.4-1.2c-0.1-0.6,0.3-1.1,0.9-1.5
	c0.3-0.2,0.5-0.5,0.7-0.7v-0.3c-0.1,0-0.4-0.1-0.5-0.1c-0.2,0-0.4-0.1-0.5-0.2c0-1.3,0-1.3,0.4-2c0.5,0,1.1,0.1,1.6,0.2
	c0.5,0.1,1.2,0.5,1.7-0.2c-0.2-0.5-0.4-0.9-0.7-1.3c-0.7-0.1-1.5-0.2-2-0.3c-1.3,0.8-2.2,1.8-2.4,3c-0.1,0.6-0.3,1-0.4,1.5
	c-0.8,0.6-1.6,0.8-1.9,1.5c0.3,0.2,0.4,0.4,0.7,0.6c-0.4,0.4-0.7,0.9-0.9,1.3c-0.1,0.2-0.3,0.5-0.5,0.5c-1.6,0.3-1.3,1.2-1.6,1.9
	c0.7,0.4,0.9,0.2,1.3-0.2c0.1-0.2,0-0.7,0.7-0.7c1.1,0.5,1.6,1.4,1.2,2.3C442.1,350.1,442.5,350,442.5,349.8z"/>
<path class="st0" d="M447.9,299.8c0.5-0.2,0.6-0.6,0.4-0.9c-0.1-0.2-0.3-0.5-0.6-0.6c-0.4-0.1-0.9-0.1-1.7-0.2
	c0.1,0.6,0.3,1,0.4,1.5C446.7,299.8,447.6,300,447.9,299.8z"/>
<path class="st0" d="M456.3,309.7c0.1,0,0.4-0.3,0.4-0.4s-0.3-0.4-0.4-0.4c-0.4,0-0.8,0.1-1.2,0.2
	C455.4,309.7,455.7,309.7,456.3,309.7z"/>
<path class="st0" d="M450.8,311.7c-0.1,0.3-0.1,0.6-0.3,1.2c0.4-0.1,0.9-0.2,1.3-0.3c0.1,0,0.3,0,0.4-0.1c0.3-0.2,0.6-0.3,0.6-0.6
	c0-0.4-0.5-0.6-1-0.6c0,0,0,0,0,0h-0.1C451.2,311.3,450.9,311.4,450.8,311.7z"/>
<path class="st0" d="M444.1,309.1c0,0.3-0.1,0.6-0.3,0.8C444.8,309.6,444.8,309.6,444.1,309.1z"/>
<path class="st0" d="M438.1,310.6c-0.4,0.1-0.8,0.3-1.1,0.5c-0.4,0.2-0.4,0.6-0.1,0.9c0.3,0.2,0.6,0.3,1.1,0.3
	c0.5-0.1,1-0.2,1.5-0.3c0.3-0.1,0.3-0.3,0.4-0.3C439.9,310.8,438.9,310.4,438.1,310.6z"/>
<path class="st0" d="M452.6,314.9c0.4,0.1,0.8,0,0.9-0.3c0,0,0,0,0,0c0-0.2-0.1-0.4-0.1-0.7c-0.4,0.2-0.7,0.2-1.1,0.4
	C451.9,314.4,452.3,314.8,452.6,314.9z"/>
<path class="st0" d="M449.5,305.9c-0.1,0.1-0.2,0.3-0.3,0.4c0.5-0.1,1-0.2,1.6-0.3c0.6,0,1.3,0,1.9,0.1c-0.3-0.4-0.3-0.7-0.4-0.8
	c-0.3-0.1-0.7-0.1-1.1,0C450.7,305.6,450.3,305.9,449.5,305.9z"/>
<path class="st0" d="M449.3,310.1c-0.1,0.2,0.3,0.5,0.6,0.5c0.3,0,0.4-0.2,0.9-0.4c-0.3-0.2-0.7-0.3-1.1-0.3
	C449.6,309.8,449.3,310,449.3,310.1z"/>
<path class="st0" d="M443.3,297.4c0,0.4,0,0.8,0.1,1.2l-0.8,0.8c-0.2,0.3-0.3,0.6-0.4,0.9c0,0.3,0.3,0.5,0.4,1
	c0.1-0.5,0.4-0.8,0.4-1c0-0.5,0.3-1,0.8-1c0.9-0.2,1.2-0.9,1.9-1.2C445.1,296.8,445.1,296.8,443.3,297.4z"/>
<path class="st0" d="M435,402.8c-0.8,0.6-1.2,1.5-0.9,2.3c0,0.3,0.3,0.6,0.1,0.8c-0.5,1,0.1,1.6,0.5,2.5c1.2-0.6,1.2-0.6,1.3-1
	c0.1-0.4,0.3-0.8,0.4-1.2c0.1-0.3,0.6-0.5,1.1-0.5h0.1c0.5,0.1,0.9,0.3,1.3,0.5c0.4,0.2,0.7,0.4,1.2,0.6c1.3-0.8,1.9-1.7,1.2-2.8
	c-1.7-0.8-1.7-0.8-3.3-0.6c0-0.1-0.1-0.2-0.1-0.3c0.1-0.4-0.4-0.8-0.9-0.8C436.1,402.2,435.4,402.4,435,402.8z"/>
<path class="st0" d="M452.5,317.9c0.1,0.3,0.2,0.6,0.4,0.8c0.3,0.3,0.8,0.5,1.3,0.3c0.4-0.1,0.8-0.3,1.1-0.6
	c0.1-0.8-0.4-1.5-1.2-1.6C453.1,316.5,452.3,317,452.5,317.9z M454.1,317.4c0.3,0.1,0.3,0.3,0.4,0.5c-0.1,0.5-0.5,0.6-1.1,0.5
	c-0.3-0.1-0.5-0.3-0.5-0.6c0-0.3,0.4-0.5,0.8-0.5C453.9,317.4,454,317.4,454.1,317.4L454.1,317.4z"/>
<path class="st0" d="M428.4,398.1c0,0.3,0,0.6,0.1,0.9c0.1,0.2,0.4,0.4,0.6,0.3c0.2-0.1,0.7-0.3,0.7-0.5s0-0.6-0.3-0.7
	C429.5,397.9,429,398.1,428.4,398.1z"/>
<path class="st0" d="M437.2,392.7c0.1-0.3,0-0.5,0.1-0.8c0-0.6,0.1-1.1,0.3-1.7c0.7-0.6,1.8-0.6,1.9-1.3c-0.1-0.2-0.2-0.3-0.3-0.5
	c-0.4-0.8-0.4-1,0.6-1.6c0.3-0.2,0.6-0.3,0.8-0.5c0.3-0.3,0.2-0.7-0.2-0.9c0,0,0,0,0,0c-0.1,0-0.1,0-0.2-0.1
	c-0.7-0.1-1.5-0.2-2.2-0.3c-1.6,0.8-2.6,2-2.5,3.3c0,0.5-0.1,1.1-0.4,1.6c-0.5,0.6-0.5,1.4-0.1,2.1c0.1,0.4,0.1,0.7,0.1,1.1
	c0.4,0.1,0.8,0.2,1.2,0.2C436.9,393.3,437,392.9,437.2,392.7z"/>
<path class="st0" d="M438.4,341.2c-1.4,0.3-1.4,0.3-0.7,1.3C438.2,342.1,438.8,341.8,438.4,341.2z"/>
<path class="st0" d="M437.9,344.1c0,0.1,0.1,0.1,0.3,0.2h0.1c0.7-0.5,1.4-0.9,2-1.4c0.4-0.3,0.3-0.6-0.1-0.9l-0.4-0.3
	c-0.1-0.1,0.1-0.3-0.3-0.3c-0.2,0.1-0.3,0.2-0.4,0.3c0.1,0.8-0.6,1.4-1.1,2C437.9,343.8,437.9,344,437.9,344.1z"/>
<path class="st0" d="M430.5,391.6c0.6-0.5,0.8-1.1,0.6-1.7c-0.5-0.2-1-0.4-1.5-0.6c-0.3,1-0.6,1.8-0.7,2.6
	C430,391.8,430.2,391.8,430.5,391.6z"/>
<path class="st0" d="M435.2,323.3c0.3,0,0.4-0.1,0.7-0.2c-0.1-0.2-0.2-0.3-0.3-0.5c-0.3,0.1-0.4,0.2-0.7,0.3
	C434.9,323.1,435.1,323.3,435.2,323.3z"/>
<path class="st0" d="M441.5,340.4c0,0.5,0.1,1,0.3,1.5C442.3,341.4,442.1,340.8,441.5,340.4z"/>
<path class="st0" d="M444.3,293.8c0.1-0.1,0.4-0.3,0.4-0.4s-0.3-0.2-0.4-0.4c-0.2,0.1-0.5,0.3-0.6,0.5
	C443.6,293.7,443.7,293.9,444.3,293.8z"/>
<path class="st0" d="M448.1,302.3c1,0.9,2.8,1.2,4.3,0.6c1-0.4,1.6-1.1,1.6-1.9c-0.1-0.6-0.8-0.9-1.8-1.2c-0.4,0-0.7-0.1-1.1-0.3
	c-0.7,0-1.3,0.1-1.9,0.3c-1.3,0.4-1.9,1.4-1.3,2.2C447.9,302.2,448,302.2,448.1,302.3z M452,300.3c0.3,0.1,0.1,0.5,0.3,0.6
	c0.3,0.2,0.6,0.4,0.8,0.6c-0.5,0-1-0.1-1.5-0.2c-0.3,0.6-0.6,1.3-1.8,1.3c-0.6,0-0.8-0.3-1.2-1.1c0.7-0.3,2.2-0.2,1.6-1.5
	C451.1,300.2,451.6,300.2,452,300.3L452,300.3z"/>
<path class="st0" d="M450.7,296.9c0.9,0.6,2.4,0.5,3.3-0.1c0.6-0.5,0.7-1.1,0.3-1.7c-1.1-0.5-2.1-1-3-1.5c-0.3,0.7-0.6,1.2-0.8,1.9
	C449.9,296,450.1,296.6,450.7,296.9z"/>
<path class="st0" d="M438.2,345.3c0,0.3-0.7,0.8,0.1,1.2c0.4-0.3,0.7-0.6,1.2-0.9c0.6-0.2,1.1-0.3,1.2-0.8c-1.1-0.6-1.1-0.6-1.8,0.2
	C438.9,345.3,438.4,345.3,438.2,345.3z"/>
<path class="st0" d="M436.1,349.2c0.6-0.1,1.2-0.2,1.8-0.2c0.5-0.6,0.5-1.4-0.1-2c-0.6-0.1-1.2-0.2-1.8-0.4
	C435.3,348.1,435.3,348.1,436.1,349.2z"/>
<path class="st0" d="M430.1,4c-0.1,0.5,0.3,0.9,0.9,1c0.6,0.1,1.1-0.1,1.3-0.4c0,0,0-0.1,0-0.1c0.1-0.4-0.2-0.8-0.9-0.9c0,0,0,0,0,0
	h-0.1C430.9,3.4,430.3,3.6,430.1,4C430.1,4,430.1,4,430.1,4L430.1,4z"/>
<path class="st0" d="M424.2,4.5h-0.9c-0.7,0-1.1,0.2-1.1,0.6c0,0.2,0.3,0.4-0.1,0.6c-0.2-0.1-0.4-0.2-0.6-0.3
	c-0.2-0.1-0.4-0.2-0.6-0.2c-0.3,0-0.6,0.2-0.6,0.4c-0.1,0.4,0.1,0.9,0.4,1.2c0.2,0.1,0.5,0.2,0.7,0.3c0.6-0.5,1.1-0.8,1.7-1.2h1.2
	c0.7-0.8,0.7-0.8,0.3-1.2C424.5,4.5,424.3,4.5,424.2,4.5z"/>
<path class="st0" d="M425.7,7.1c0.3-0.2,0.3-0.6,0-0.8c0,0,0,0,0,0l0,0c-0.2-0.2-0.7-0.3-1-0.1c0,0,0,0,0,0l-0.1,0
	C424.6,6.8,424.6,6.8,425.7,7.1z"/>
<path class="st0" d="M430.5,6.9c-0.1,0.3,0.1,0.5,0.6,0.6c0.3,0.1,0.6,0,0.7-0.2c0.1-0.3-0.1-0.6-0.4-0.6
	C431.1,6.6,430.7,6.7,430.5,6.9z"/>
<path class="st0" d="M409.4,2.3c0.2,0.1,0.3,0.3,0.4,0.5h0.4c0.3-0.2,0.3-0.6,0-0.8c0,0,0,0,0,0h-0.1C409.9,2,409.5,2.1,409.4,2.3
	C409.4,2.3,409.4,2.3,409.4,2.3z"/>
<path class="st0" d="M417.6,4.1c0.3,0.1,0.5,0.1,0.5,0.4c-0.4,0.2-0.8,0.3-0.8,0.7s0.7,0.4,1.2,0.6c-0.1,0.5,0.3,0.7,0.8,0.9
	c0.5-0.4,0.5-0.4,0.5-0.7h-0.7c-0.2-0.4-0.3-0.8-0.3-1.2c0-0.4-0.2-0.7-0.5-1c-0.3-0.3-0.8-0.5-1.3-0.6c-0.5,0-0.9,0.1-1.3,0.3h-0.3
	c0.3,0.2,0.5,0.3,0.8,0.4C416.7,3.8,417.2,4,417.6,4.1z"/>
<path class="st0" d="M383.3,2.7c-0.1-0.1-0.4-0.1-0.7-0.2c-0.3,0.3,0,0.6,0.3,0.8C383.4,3.2,383.4,2.9,383.3,2.7z"/>
<path class="st0" d="M379.3,3.4c0.1-0.4,0-0.5-0.3-0.6h-0.3c-0.3,0.2-0.3,0.4,0,0.7c0.1,0,0.2,0.1,0.3,0.1
	C379.1,3.5,379.2,3.5,379.3,3.4z"/>
<path class="st0" d="M371.2,1.1c-0.2,0.1-0.3,0.3-0.3,0.4c0.1,0,0.1,0.1,0.3,0.1c0.2,0,0.5-0.1,0.7-0.1
	C371.7,1.3,371.3,1.2,371.2,1.1z"/>
<path class="st0" d="M429.8,12.2c0.4,0,0.9-0.1,1.3-0.2l0,0C430.6,12,430.2,12.1,429.8,12.2z"/>
<path class="st0" d="M427,7.4c-0.4,0.3-0.7,0.4-0.4,0.8c0.3,0.4,0.7,0.4,1.6,0.4c0.4-0.3,0.9-0.6,0.6-1C428.3,7.4,427.7,7.3,427,7.4
	z"/>
<path class="st0" d="M423.8,7.2c0,0.2-0.1,0.3-0.1,0.4s0.1,0.3,0.3,0.3h0.6c0.1-0.1,0.1-0.2,0.1-0.4C424.5,7.2,424.2,7.2,423.8,7.2z
	"/>
<path class="st0" d="M432.8,9.2c0.1,0.1,0.4,0,0.4-0.2s0-0.3-0.3-0.3c-0.3,0-0.5,0.1-0.7,0.2C432.4,8.9,432.7,9,432.8,9.2z"/>
<path class="st0" d="M428.5,10.2c-0.1,0.2,0,0.3,0.1,0.5c0.1,0.1,0.3,0.1,0.4,0.1c0.5,0.1,0.9,0,0.9-0.2s-0.1-0.5-0.5-0.5h-0.5
	C428.8,10.1,428.6,10.1,428.5,10.2z"/>
<path class="st0" d="M372.6,16.8c-0.1-0.2-0.3-0.3-0.9-0.1c0.1,0.2,0.3,0.3,0.4,0.4C372.8,17,372.8,17,372.6,16.8z"/>
<path class="st0" d="M411.1,19.4c0.1,0.2,0.3,0.3,0.6,0.3c0.2,0,0.3-0.1,0.3-0.2c0-0.2-0.2-0.4-0.5-0.4c0,0,0,0,0,0h-0.5
	C411,19.2,411,19.2,411.1,19.4z"/>
<path class="st0" d="M409.8,19.4c0,0,0.3-0.1,0.3-0.2c0-0.1-0.1-0.3-0.4-0.3c0,0,0,0-0.1,0c-0.2,0-0.4,0.1-0.6,0.2
	C409.3,19.2,409.6,19.3,409.8,19.4z"/>
<path class="st0" d="M380.5,18.1c0.4,0.1,0.8,0.3,1.2,0.5h2.4c0.1-0.2,0-0.4-0.1-0.4c-0.7-0.2-1.4-0.4-2.1-0.5
	C381.1,17.4,380.6,17.7,380.5,18.1z"/>
<path class="st0" d="M374.5,18.2c0.1-0.3-0.3-0.6-0.6-0.8c0.4-0.1,1.1,0.1,1.1-0.2s-0.3-0.3-0.7-0.5c-0.1,0.2-0.4,0.4-0.6,0.6
	c-0.3,0.2-0.7,0.3-1.1,0.3c-0.4,0.2-0.4,0.5-0.2,0.8c0,0,0,0,0,0v0l0.1,0.1h1.7C374.4,18.5,374.5,18.4,374.5,18.2z"/>
<path class="st0" d="M380.4,0.1c-0.1,0.2,0.1,0.5,0.4,0.6c0.1,0,0.1,0,0.2,0c0.3,0,0.4-0.1,0.4-0.2c0-0.2-0.1-0.4-0.4-0.5
	C380.8,0,380.6,0.1,380.4,0.1z"/>
<path class="st0" d="M387,1.4c-0.1,0-0.3,0.2-0.4,0.3c-0.2,0.2-0.4,0.3-0.6,0.4c0.3,0.3,0.5,0.6,0.6,1c-0.7,0.8-2.2,0.5-3.4,0.7
	c0,0.2,0.1,0.3,0.1,0.5c0.1,0,0.3,0.1,0.4,0.1h0.4c-2.9,0.8-6.2,1.3-9.6,1.9c-0.1-0.1-0.6-0.2-0.8,0c-0.3,0.1-0.6,0.2-0.8,0.3
	c-2,0.3-4.2,0.6-6.4,0.8c-3.8,0-25,1.9-28.8,1.9c-6.1,0.1-24.6-0.3-32.2,0.4c-13.3-0.2-24.4-0.1-37-0.6c-11.9-0.5-33.1-0.1-41.1-0.1
	C184.4,8.8,135,8.4,92.6,7.7C71.5,7.5,39.5,8.9,18.1,8.6l-4.2-0.1L1.6,14.4v4.4H0.1L0,22.6h1.6l4.2,165.3L3,302.2v196.1l2.7,1.2
	c0.4,0.7,1.1,1.3,2,1.7c0.6,0.2,1.3,0.3,2,0.3l4.9,2.2v-3.1c2-0.5,4.1-0.7,5.3,0.3c0.7,1.3,0.6,2.8,1.2,4.1c0,0.1,0.1,0.1,0.1,0.2
	h-0.3v2.7h0.7V506c0.8,1,2.2,1.7,3.8,1.5c1.6-0.2,2.6-1.2,3.8-2.1c0.7-0.5,1.5-1,2.4-1.3l0.4,1h2.3l0.4-0.8l-1.5-0.8
	c2.9-0.8,6-1.4,9.1-1.6c1.5-0.2,2.9-0.3,4.3-0.6c0,0.1,0.1,0.2,0.1,0.3l1.2,1.8l-0.7,0.6l3.9-0.2l5-4l2.6,4.2
	c9.6-0.2,19.2-0.6,28.8-1.2l0.8-1.7l4.6,0.8c2.7,0.5,8.2,0.8,10.3,0.4l1.5-1.5l3.5,0.3c55.8,1.3,129-2.8,187.6-3.9
	c23.4-0.4,64.8-0.8,88.3-0.8c3,0.8,6.2,1.1,9.5,0.8c2.3-0.1,4.6-0.4,6.8-0.8h2.4l0.7-0.5c5.1-0.6,10.3-0.5,15.3,0.1
	c2.6,0.3,5.9,0.7,7.3-0.8c0.5-0.6,0.8-1.3,0.7-2c0.1-0.7,0-1.4-0.3-2h0.1v0.5l5.8-3.9l-1.6-32.7c0.4-0.5,0.7-1,0.6-1.6
	c-0.1-0.3-0.1-0.6,0-1c0.3-0.7,0.3-1.2-0.4-1.6c-0.3-0.2-0.1-0.6,0.4-0.7c0.7-0.1,0.6-0.5,0.4-0.8c-0.2-0.3-0.7-0.5-1.2-0.4l0,0
	l-0.3-4.8c0.4,0.4,1.1,0.7,1.8,0.7c0.6,0.1,1.3-0.3,1.6-0.8c0.4-0.6,0.6-1.3,0.4-2c-0.2-0.5-0.1-1,0.1-1.5c0.5-0.7,0.9-1.5,1.2-2.4
	c0.3-1,1.6-2,0.4-3.1c0-0.6,0.1-1.2,0.1-1.8c0.3-0.1,0.7-0.2,1.1-0.3c-0.1-0.4-0.4-0.8-0.6-1.2c-0.7,0.1-1.5-0.8-2.3,0.1
	c0.6,0.8,0.1,1.6-0.4,2.5c-1.1,0.1-1.9,0.2-2.2,1c0,0.1-0.3,0.2-0.4,0.3c-0.3,0.3-0.7,0.6-1.3,0.8l-1.2-21.7
	c0.2-0.1,0.3-0.3,0.4-0.4c0.7-0.6,1.1-1.3,1.1-2c-0.1-0.9,0.6-1.8,1.8-2.3c0.4-0.1,0.6-0.3,0.7-0.6c0.2-0.2,0.2-0.5-0.1-0.6
	c-0.1,0-0.2-0.1-0.3-0.1c-0.1,0-0.4,0.1-0.6,0.1c-0.4,0-0.6-0.2-0.7-0.5c0-0.2,0-0.4,0.1-0.6c0.2-0.5,0.3-1,0.4-1.5
	c0-0.5-0.8-0.8-0.7-1.5c-0.4-0.4-1.1-0.7-1.6-1.2c0.3-0.3,0.4-0.5,0.7-0.8c0.7,0,0.7,0.4,1.1,0.6c0.3,0.1,0.4,0.4,0.7,0.6
	c1.1-0.4,0.7-1,0.6-1.5c0.1-0.1,0.1-0.3,0.3-0.3c1.1-0.4,1.9-1,2.3-1.7c0.6-0.8,1.8-1.5,2-2.6c-0.2-0.3-0.3-0.5-0.4-0.8
	c-0.1-0.3-0.8-0.3-1.2,0c-0.3,0.3-0.5,0.6-0.6,1c0,0.4-0.5,0.7-1.2,0.8c0.1-0.3,0.3-0.6,0.4-0.8c0.4-0.8,0.4-0.8-0.4-1.5l-0.7-0.5
	c1-0.8,1.8-1.8,2.2-2.8c-0.6-0.1-0.7-0.4-0.7-0.8c-0.1-0.5-0.3-1-0.6-1.5c0.1-0.8,1.8-1.5,0.7-2.6c-0.6-0.8,0-1.9-1.8-2.1
	c0-0.4,0.1-0.8,0.3-1.2c1.7-0.2,3.2-0.7,4.3-1.6c0.4-0.4,1.1-0.7,1.5-1c0.7-0.6,0.7-0.8,0-1.7c0.6-0.2,1.2-0.3,1.9-0.5
	c0.5-0.9,0.7-1.8,0.6-2.8c-0.8-0.4-1.8-0.6-2.7-0.6c-0.3,0-0.7-0.4-1.2-0.7c-1.8,0.7-3.4,0.2-5.3-0.2c0.3-0.2,0.7-0.4,1.1-0.6
	c0.4,0.2,0.8,0.4,1.3,0.6c0.6,0.2,1.4,0.2,1.8-0.2c0-0.2,0-0.5,0.1-0.7c0-0.3,0.1-0.5,0.1-0.8c0.4-0.3,0.4,0.1,0.7,0.2
	c0.2,0.1,0.5,0.2,0.7,0.3c0.3,0.1,0.7,0.2,1.1-0.1c0.3-0.2,0.3-0.6,0-0.8c-0.1-0.1-0.1-0.2-0.3-0.3c0.4-0.2,0.7-0.2,0.8,0.1
	c0.3,0.4,0.5,0.9,0.6,1.3c0.1,0.5,0.4,0.8,1.2,0.8c0.2-0.2,0.3-0.5,0.3-0.7c-0.1-0.9-0.4-1.7-0.8-2.6c-0.5-0.8-0.7-1.9-1.2-2.8
	c-0.1-0.3-0.2-0.6-0.3-0.8c-0.1-0.3-1.1-0.4-1.3-0.2c-0.2,0.2-0.4,0.4-0.4,0.7c0,0.2,0.1,0.3,0.3,0.4c0,0.2,0.1,0.3,0.1,0.5
	c-0.3,0.2-0.6,0.5-0.8,0.8c0.2,0.2,0.4,0.3,0.6,0.4v0.1c-0.3,0.4-0.6,0.7-1.1,1h-1.1c-0.4-0.4-0.7-0.9-0.8-1.3
	c-0.3-0.6,0.3-1,0.8-1.5c0.3-0.1,0.5-0.2,0.7-0.3c0.5-0.5,0.7-1.1,0.7-1.7c-0.4-0.1-0.8-0.3-1.2-0.2c-1.6,0.4-2.7,0-4.1-0.7
	c-0.3-0.1-0.4-0.2-0.8-0.4l1.1-0.7c0.3,0.4,0.6,0.8,1.2,0.8c0.4,0.5,0.8,0.1,1.2-0.1c0.4-0.3,0.4-0.7,0-1c-0.3-0.2-0.8-0.3-1.3-0.5
	c0.7-0.8,1.9-0.6,2.7-0.8c0.3,0.3,0.7,0.7,1.2,1c0.7,0.5,1.6,0.4,2.2-0.3c0.3-0.3,0.4-0.7,0.7-1c-0.6-0.6-1.6-1-2.6-1.2
	c-1.3-0.2-1.8-1.2-0.8-2.2c0.4-0.5,0.1-0.7-0.3-0.8c-1.3,0.4-0.8,1.6-2,2.1c-1.1-0.5-1.3-1.5-2-2.1c-0.1-0.3,0-0.7,0.1-1
	c1.8-0.2,3.5,0.5,5-0.8c-0.6-0.5-0.3-1.2-1.1-1.6s-0.3-1-0.3-1.5c-0.4-0.2-0.8-0.4-1.2-0.7c0.1-0.2,0.4-0.3,0.4-0.4
	c-0.3-0.8,0.8-1.6,0.6-2.5c-1.1-0.6-1.1-0.6-1.2-1.3c-0.6-0.3-1.1,0.7-1.6,0.3c-0.1-0.7,0.6-1.2,0.7-1.9c-0.3-0.3-0.7-0.5-1.1-0.8
	c-0.1-0.2-0.1-0.3-0.1-0.5c0.6-0.2,1.2-0.4,1.6-0.6c0.6-0.2,1-0.6,1.1-1c0-0.3,0.1-0.5,0.1-0.8c0.2-0.6-0.1-1.1-0.8-1.5
	c-0.3-0.1-0.6-0.2-0.8-0.4c0.3-0.3,0.4-0.6,0.6-0.8c-0.1-0.1-0.3-0.2-0.4-0.2c-0.8,0.6-2.3,0.5-3.2,1.2c0.2,0.3,0.3,0.5,0.4,0.8
	c0.1,0.3,0.1,0.6,0,1h1.1c0.1,0.8-0.1,1.3-1.3,1.6c-0.3-0.2-0.7-0.4-1.2-0.6c-0.4,0-0.8,0-1.3,0c-0.4-0.5-0.7-1-1.2-1.5
	c0.5-0.4,1-0.8,1.5-1.2c-0.3-0.5-0.6-0.8-0.8-1.2c-0.3-0.4-0.5-0.8-0.6-1.2c0.3-0.1,0.6-0.2,0.8-0.4v-1.3c-0.1-0.1-0.3-0.2-0.4-0.1
	c-0.7,0-1.3,0.3-1.6,0.8c-0.1,0.2-0.3,0.3-0.6,0.5c-0.1,0-0.1,0-0.1-0.1c0,0,0,0,0,0l0,0l-0.1-2.3c0.1-0.4,0.6-0.7,1.2-0.8
	c-0.2,0.5,0,1,0.6,1.3c0.1,0,0.3,0.1,0.4,0.1c1.1-0.1,2.1-0.2,3.2-0.4c0.4-0.8-0.6-0.8-1.2-1.2c0.5-0.3,0.9-0.5,1.5-0.8
	c0.3,0.7,0.4,1.2,0.7,1.9c0.5,0,1.1,0,1.6,0.1c0.1,0.6,0.2,1.2,0.3,1.8c1.2,0.1,1.5-0.5,1.8-1.2c-1.5-0.3-1.6-0.4-1.3-1.3
	c0.2-0.4,0-0.7-0.4-1c-0.3-0.1-0.4-0.2-0.8-0.3c0.3-0.3,0.5-0.6,0.6-1c0-0.4-0.1-0.8-0.3-1.2c0.4-0.3,0.8-0.6,1.6-1
	c0,0.8,0.2,1.6,0.6,2.3c0.2,0.6,0.1,1.2-0.1,1.8v1c0.7-0.2,1.3-0.1,1.8-0.5c0.4-0.3,0.6-0.7,1.1-1h1.7c0.3-1,0.3-1-0.7-1.2h-0.7
	c-0.4-0.4,0-0.8,0.1-1c0.7-0.9,0.8-2,0.3-3.1c-0.4,0-0.8-0.1-1.2-0.2c-0.1-0.2-0.1-0.4-0.1-0.6c-0.7,0-1.4,0.1-2,0.3
	c-0.9,0.4-2.1,0.4-3,0c0.3-0.9,0.7-1.9,1.2-2.8c0.2,0.1,0.5,0.3,0.6,0.5c0.2-0.2,0.4-0.3,0.6-0.4c0.6,0.2,1.3,0.4,2.2,0.8
	c0.1-0.1,0.7-0.2,1.3-0.4c0.4,0.7,1.3,1.2,2.4,1.5c0.4,0.1,0.8,0.3,1.1,0.5c0.4,0.3,1.1,0.4,1.6,0.2c0,0,0,0,0,0
	c0.1-0.1,0.2-0.1,0.3-0.2c0.1-0.1,0.3-0.1,0.6-0.1c0.1,0.3,0.4,0.5,0.6,0.8c0.5,0.1,1,0.2,1.5,0.4c0.4-0.5-0.6-0.5-0.6-0.8
	c0-0.3,0-0.7-0.1-1c-0.4,0-0.8-0.1-1.5-0.1c0-0.3,0.1-0.6,0.1-0.8c0.2-0.4,0.3-0.8,0.3-1.2c0-0.5,0.3-1.2-0.4-1.5
	c-0.5-0.5-1.3-0.7-2.2-0.8h-1.3c-0.1-0.4,0.3-0.4,0.6-0.5c0.6-0.2,1.1-0.6,1.2-1c0.1-0.6-0.1-1-0.8-1c-0.5,0-1-0.1-1.5-0.2
	c-0.8,0.8-0.8,0.8-0.7,2.1c-1.1-0.1-2.1-0.2-3.2-0.4c-0.4-0.4-1.1-0.8-1.6-1.3c0.1-0.3,0.4-0.6,0.6-1c-1.3-0.2-1.6,0.2-1.6,1.9
	c-0.6,0.3-1.2,0-1.6-0.2c-0.4-0.2-0.8-0.6-1.5-0.4c-0.3,0.1-0.6,0-0.6-0.3c-0.1-0.4,0.3-0.5,0.6-0.5l0.1-0.1
	c-0.4-0.2-0.9-0.2-1.3-0.1l0.7-3c0.7-0.1,1.3-0.3,1.8-0.6c0,0,0.3,0,0.4,0.1c0,0.8-1.6,1.2-1.3,2.2c0.2,0,0.5-0.1,0.6-0.2h0.4v1
	c0.3-0.1,0.4-0.2,0.6-0.3c0.4-0.3,0.6-0.4,1.2-0.4c0.1-0.8,0.1-0.8,1.2-1.5c0.8,0.1,0.6,0.8,1.2,1.2c0.6-0.1,1.3,0.7,1.9-0.2
	c0-0.7-0.6-1.3-1.6-1.5c-0.7-0.3-1.8-0.2-1.9-1c-0.4-0.1-1.1-0.2-1.5-0.3c-0.3-0.1-0.6-0.3-0.7-0.5c0-0.2,0.3-0.4,0.6-0.7
	c0.4,0.5,0.6,0.8,1.1,1.2c0.5-0.1,1-0.2,1.6-0.2c0.4,0.2,0.7,0.4,1.1,0.7c1,0.7,2.3,1.2,3.8,1.3c1.2,0.1,2.4-0.3,2.9-1
	c0.2-0.3,0.4-0.5,0.6-0.8c0.3,1.2,1.6,1.6,2.6,2.2c1.2-0.3,2.2-0.5,3.4-0.8c0.4-0.4,1.1-0.8,1.6-1.2c0.4-0.3,0.7-0.6,0.8-1
	c0.7-0.9,0.1-2-1.2-2.4l-0.3-0.1c-1.9-0.6-4.2-0.2-5.4,1c-0.3,0.3-0.6,0.6-1.2,1c0-1.4-0.1-2.9-0.4-4.3c-0.4,0.3-0.8,0.7-1.2,1
	c-0.5,0.5-1.2,0.8-2,1c-0.8,0.2-1.6,0.3-2.7,0.5l-0.7-0.5c-0.1-0.2-0.2-0.4-0.3-0.6c-0.5-1.3-2.1-2.2-4.1-2.4
	c0.4-0.3,0.7-0.5,1.1-0.8c1.2-0.7,2-1.7,2.2-2.7c0.5-0.1,0.9-0.3,1.3-0.5c0-0.5-0.3-1-0.1-1.3c0.3-0.4,0.3-0.8,0.1-1.2
	c-0.6,0.2-1.2,0.5-1.9,0.8c-0.1-0.8-0.3-1.6-0.3-2.5c0.7,0.2,1.2,0.4,1.2,1c0.1-0.2,0.3-0.2,0.3-0.3c-0.1-0.4,0.2-0.7,0.7-0.8
	c1.9-0.5,1.8-1.6,2.2-2.7c-0.3-0.7,0-1.5,0.7-2.1c0.1-0.1,0.1-0.3,0.3-0.4c-0.3-0.6-1.3,0.3-1.6-0.5c-0.1-0.3-1.1-0.3-1.5-0.6
	c-0.4-0.3-0.4-0.5,0.3-1c0.3,0.2,0.7,0.4,1.1,0.5c0.5-0.1,0.9-0.2,1.3-0.4c0.3,0.4,0.6,0.9,1.1,1.2c0.1,0.1,0.4,0.2,0.6,0.1
	c0.2-0.1,0.3-0.2,0.4-0.3c0.1-0.8,0.3-1.6,0.3-2.5c0-0.2-0.3-0.5-0.4-0.7c-0.1-0.2-0.4-0.3-0.8-0.6c0.6-0.3,1.2-0.5,1.8-0.7
	c0-0.3,0-0.7,0.1-1c-0.1,0-0.3,0-0.4-0.1c0,0.2,0,0.5-0.3,0.6c-0.8,0.2-1.5,0.6-1.9,1.2c-1.1,0.4-2,1.1-2.4,1.9
	c-0.2,0.1-0.5,0.2-0.7,0.3c0-0.8,0.1-1.6,0.1-2.5c-0.1,0-0.1,0-0.3,0.1l0.3-1.3c0.1,0,0.1-0.1,0.3-0.1c0.1,0.5-0.4,1.2,0.7,1.5
	c0.6-0.5,0-1.2,0.3-1.6c0.8,0,0.3,0.8,1.2,0.8c0.3-0.4,0.4-0.4,0.3-0.8c-0.9-0.1-1.8-0.1-2.7-0.1l0.1-0.3L432.2,13L421,7.9v0.6
	c-0.1,0-0.3,0-0.4,0.1c-0.3,0.2-0.4,0.4-0.3,0.7c0.2,0.1,0.5,0.2,0.7,0.2v0.7c-0.8-0.4-1.7-0.7-2.6-1c-1.2,0.4-2.6,0.5-3.9,0.3
	c0-0.7-0.1-1.2-0.1-1.9h4.9l-1.5-0.7L414.3,7V6.8c-1.6-0.1-3.2-0.2-4.7-0.3c-0.4-0.1-0.8-0.2-1.2-0.2c0-0.1-0.1-0.1-0.1-0.2
	c0-0.2-0.2-0.4-0.5-0.4c0,0,0,0,0,0h-0.2c-0.3,0-0.4,0.4-0.3,0.6c0,0,0,0.1,0.1,0.1l0,0h-1.3c-0.3-0.2-0.3-0.3,0.1-0.6
	c0.2-0.2,0.4-0.4,0.3-0.7c0-0.4-0.1-0.7-0.1-1c0-0.2,0.1-0.3,0.1-0.5c0.5,0.2,1,0.4,1.5,0.5c0.1-0.2,0.1-0.4,0.1-0.6
	c0.1-0.3,0.6-0.5,1.1-0.5h0.1c0.4,0.1,0.6,0.4,0.5,0.7c0,0,0,0,0,0l-0.1,0.1c-0.1,0.1-0.3,0.2-0.4,0.2c-0.2,0-0.5,0.1-0.6,0.2
	c0,0.3-0.3,0.6,0,0.8h0.8c0.4,0.2,0.1,0.7,1.1,0.7c0.4-0.2,0.8-0.4,1.1-0.7h0.8c0.6,0,1.1,0.1,1.3,0.4c0.6,0.5,1.2,0.6,2.3,0.4
	c-0.3-0.4-0.6-0.7-0.8-1c0.3-0.1,1.1,0,0.8-0.3c-0.1-0.4,0.3-0.8,0.3-1.2c-0.7,0-1.2-0.4-1.6-0.6c0.1-0.3,0.3-0.5,0-0.7
	c-0.3-0.1-0.6-0.1-0.8-0.2c-0.2,0-0.5,0-0.7,0.1c-0.1,0.6,0.6,0.7,1.2,1c-0.3,0.6,0.3,0.8,0.8,1c-0.1,0.3-0.1,0.3-1.3,0.6
	c-0.2-0.6-0.7-1-1.5-1.3c-1.1,0-0.1,0.6-0.7,0.8c-0.1-0.2-0.4-0.4-0.6-0.6c-0.1-0.1-0.1-0.3-0.3-0.3c-0.8-0.2-0.6-0.8-0.7-1
	c-0.6-0.3-1.2-0.5-1.9-0.8c-0.4,0.3-0.8,0.5-1.3,0.7c-0.4,0.3-0.8,0.5-1.3,0.8c-0.3,0.2-0.7,0.3-1.2,0.3c-0.8-0.1-1.3,0.5-2.2,0.5
	c-0.1,0-0.3,0.2-0.4,0.4c-0.4-0.2-0.7-0.4-1.2-0.6c-0.4,0.2-0.8,0.3-1.2,0.4c-1-0.2-2.1-0.5-3-0.8c-0.1,0-0.3-0.1-0.4-0.1l0.1-0.1
	c-1.4-0.1-2.8-0.3-4.1-0.8c-0.6,0.2-1.2,0.4-1.8,0.6c-0.4,0-0.7,0-1.1-0.1c0.1-0.3,0.2-0.6,0.3-0.8c0-0.2,0.1-0.4,0-0.5
	c0-0.3-0.3-0.5-0.7-0.5h-0.1C387.4,1.1,387.6,1.3,387,1.4z M433.9,366.4c0,0.5-0.4,0.6-0.8,0.7V367c-0.1-0.2-0.1-0.5,0.1-0.7
	C433.4,366.3,433.6,366.3,433.9,366.4z M439.4,323.7c0.2-0.1,0.4-0.2,0.6-0.3c0.6,0,1,0.4,1,0.7c0,0.1-0.1,0.2-0.1,0.3
	c0,0.1-0.3,0.2-0.4,0.2c-0.6,0-1.1-0.3-1.1-0.6C439.3,323.9,439.4,323.8,439.4,323.7z M39,490l1.3,1.5c-0.6,0-1.2,0-1.8,0.1L39,490z
	 M431.8,441c1.1,0.2,1.1,0.3,0.6,1.2c-0.6,0-1.3,0.1-1.9,0.1l-0.1-1.5C430.9,440.8,431.3,440.8,431.8,441L431.8,441z M429.4,408.5
	c0.2,0.1,0.3,0.3,0.4,0.4c-0.1,0.4-0.7,0.6-1.1,0.8l-0.1-1.7C428.8,408.2,429.1,408.3,429.4,408.5z M431.9,399.3
	c0.1,0.2,0.1,0.5,0,0.8c-0.1,0.2-0.4,0.4-0.7,0.5c-0.3,0.1-0.4-0.1-0.6-0.4c-0.2-0.3-0.6-0.5-0.8-0.3c-0.3,0.1-0.3,0.5-0.4,0.7
	c-0.1,0.2,0.3,0.4,0.3,0.6c0,0.3-0.1,0.5-0.4,0.7c-0.1,0.1-0.4,0.1-0.7,0.1l-0.1-1.6v-0.1l-0.1-2.5c0.3,0,0.7-0.1,0.8-0.3
	c0.1-0.1,0.7,0,1.1,0c0.6,0,1.2-0.1,1.8-0.1C431.5,398,431.5,398.7,431.9,399.3L431.9,399.3z M432.6,387.4c0.5,0.2,0.8,0.6,0.6,1
	c-0.7,1.3-0.8,2.8-2.3,4.1c-1.2-0.4-1.9,0.1-2.4,0.8c-0.1,0.2-0.3,0.4-0.4,0.6l-0.1-3.5c0.3-0.4,0.7-0.8,1.1-1.2
	c0.3-0.3,0.3-0.6-0.3-0.8c-0.3-0.1-0.4-0.2-0.7-0.3c-0.1,0-0.1,0-0.1,0.1c0,0,0,0,0,0l0,0v-0.8c0.2,0,0.5-0.1,0.6-0.2
	c0.4,0.3,0.7,0.6,1.3,0.2s0.7-0.3,1.3-0.1C431.2,387.7,432,387.4,432.6,387.4z M428.5,383.4c-0.4,0.1-0.7,0.4-1.1,0.6v-1.2
	c0.6-0.7,1.5-1.2,2.6-1.5c0.3,0.3,0.7,0.6,1.2,0.8C430.4,382.6,429.5,383,428.5,383.4z M435.9,382.4H435c-0.3-0.6-0.4-1.2-0.7-1.9
	c0.4-0.1,0.9-0.2,1.3-0.3C435.8,380.9,435.8,381.6,435.9,382.4L435.9,382.4z M428.9,380.2c-0.1-0.2-0.3-0.5-0.4-0.8
	c0.4-0.1,0.8-0.2,1.3-0.2C430.1,379.7,429.9,380,428.9,380.2z M434.5,377.6c0.3,0.1,0.8,0.2,0.8,0.4c0.2,0.5,0.6,1,1.3,1.3
	c-0.4,0.4-1.1,0.6-1.8,0.4c-0.7-0.1-1.4,0-2,0.2c-0.8,0.4-1.6,0-2.4-0.5c0-0.3,0.1-0.5,0.3-0.8c0-0.1,0.3-0.4,0.4-0.4
	C432.2,378.2,433.1,377.3,434.5,377.6z M430.4,377.6v0.3c-0.1,0.1-0.3,0.1-0.4,0.1c-0.2,0-0.5-0.1-0.6-0.2c-0.1-0.1,0-0.3,0-0.4
	c0-0.1,0.3-0.1,0.4-0.1C429.9,377.2,430.1,377.5,430.4,377.6z M432.9,370.7c-0.2,0.5-1,0.8-1.8,0.8c-1.4-0.1-2.8-0.2-4.2-0.4v-0.5
	c0.1-0.4,0.2-0.8,0.3-1.2c0.3,0.2,0.5,0.4,0.7,0.7c0.8,0.8,2,0.8,2.9-0.2c0.1-0.1,0.1-0.3,0.3-0.4c0.3-0.2,0.7-0.2,1.1-0.1
	C432.3,369.8,432.5,370.3,432.9,370.7z M436.2,369.5c-0.2,0.3-0.4,0.5-0.6,0.8c-0.4,0-0.7-0.1-1.1-0.2c-0.7-0.1-0.8-0.5-0.8-1
	c0.6-0.5,1.3-0.5,2-0.7c0.6,0.2,0.9,0.6,0.7,1C436.3,369.4,436.2,369.4,436.2,369.5z M438.5,364.3c-0.4,0.2-0.9,0.5-1.3,0.8
	c0-0.3-0.1-0.5,0-0.6C437.5,363.9,438,363.9,438.5,364.3z M427.2,364.9c-0.6-0.2-0.4-0.7-0.8-0.8v-0.5
	C427.4,363.6,427.4,363.8,427.2,364.9z M433.4,351.9c-0.3,0.1-0.7,0.3-1.3,0.4c-0.3-0.2-0.5-0.4-0.7-0.6c-0.3-0.4-0.1-0.6,0.6-0.8
	c0.3,0,0.4-0.1,0.7-0.1C432.4,351.4,433.4,351.4,433.4,351.9L433.4,351.9z M431.8,349.3c0-0.8,0-0.8,0.8-1
	C432.6,348.7,432.6,349.1,431.8,349.3z M425.8,348.3c0,0.1-0.1,0.1-0.1,0.2v-0.8C425.8,347.9,425.9,348.1,425.8,348.3L425.8,348.3z
	 M431.6,335.7c0.1,0.2-0.1,0.5-0.4,0.6c0,0,0,0,0,0l0,0c-0.1,0.1-0.4,0.1-0.6,0.1c0-0.2-0.1-0.3,0-0.5c0.1-0.2,0.4-0.4,0.7-0.4
	C431.2,335.5,431.5,335.6,431.6,335.7L431.6,335.7z M436.9,327.2c-0.1,0.4,0,1-1.1,1.2c0.3-0.7-0.8-1.3,0.7-1.9
	C436.8,326.8,437,327,436.9,327.2L436.9,327.2z M434.2,326.5c0,0.3-0.3,0.5-0.6,0.6c-0.1,0-0.3,0-0.3-0.1v-0.6
	c0-0.2,0.1-0.3,0.6-0.7C434,325.9,434.1,326.2,434.2,326.5z M449.2,315.9c0.3,0.6,0.5,1.3,0.4,1.9c-1.1,0.3-1.1,0.3-1.8-0.4
	C448.5,316.3,448.5,316.3,449.2,315.9L449.2,315.9z M439.9,316.4c-1.1,0.5-1.5,1.3-2.6,1.8c-0.3-0.4-0.5-0.9-0.7-1.3
	c1.8-0.5,1.8-0.5,2.7-1.8C439.5,315.6,439.6,316,439.9,316.4z M435.3,299.2c-0.1,0.2-0.3,0.3-0.6,0.4l0.1-0.6
	C435,299.1,435.2,299.1,435.3,299.2L435.3,299.2z M400.8,13.9c0.2,0.3,0.7,0.5,1.3,0.6l0.3,0.2c0.1,0.1,0.1,0.2,0.3,0.3
	c0.1,0.7,0.1,0.8,0.7,0.7c0.1,0.2,0.3,0.3,0.4,0.4c-0.1,0.1-0.3,0.1-0.3,0.2c0.1,0.1,0.2,0.3,0.3,0.4c0.2-0.1,0.3-0.3,0.4-0.4
	l0.1,0.1c0.3,0.2,0.7,0.3,1.1,0.4H405c-0.3-0.1-0.3,0.1-0.3,0.2c0,0.1,0,0.2,0.1,0.2c0.4,0.2,0.8,0.4,1.1,0.7c0,0.1,0.3,0.1,0.4,0.2
	l0.4-0.3c0.1-0.1,0.4-0.1,0.6-0.2c-0.1-0.1-0.1-0.3-0.1-0.4c2.3,0.5,4.4,1.4,6.2,2.5c-0.1,0.2,0.1,0.3,0.4,0.4h0.1V20
	c0.1,0.1,0.3,0.2,0.4,0.2v0.2c0.3,0.1,0.4,0.2,0.7,0.4c0.3,0.2,0.4,0.4,0.7,0.6c0,0.7,0,1.4,0.1,2.1c-0.1,0.1-0.1,0.2-0.3,0.2
	s-0.4-0.2-0.8-0.3c0.4,0.7,0.8,1.3,1.2,2c3,81.5,5.8,168.1,5.8,255.6v0.1l-2.4,31.3c0.4,12.2,0.7,23.9,0.7,35.8
	c0,23.7-0.8,44-1.8,65.5c-1.1,22.9-2,43.2-2,72.7v0.8h4.5c-1.3,1-2.4,2.1-4.3,2.2c-3.5,0.2-6.1-3.5-9.1-2.5
	c-0.7,0.3-1.3,0.8-1.8,1.2c-1.1,0.9-2.6,1.6-4.3,1.9H400v-1.3l-356.1-0.1l-14.7,2.6c-4.7-0.5-9.5-1.3-14.3-2.1V294.3l7.1-63.1V17
	l267-1.1l14.2-1c12.6,0.1,42.6-0.4,55.3,0.1c2.3,0.1,4.6,0.2,6.9,0.3v0.2c-0.2,0-0.5,0-0.7,0.1c0.3,0.1,0.6,0.2,0.6,0.3
	c0.2,0.2,0.3,0.5,0.3,0.8c0,0.3,0.1,0.5,0.1,0.8c0.8,0,0.8,0,1.1-0.4c0.1-0.5,0.5-1,1.1-1.5v-0.1c0.4,0,0.8,0,1.3,0.1l0.1,0.1
	l0.1-0.1c0.6,0,1.2,0,1.8,0.1c0.1,0.2,0.3,0.3,1.1,0.4c-0.1-0.2-0.3-0.3-0.3-0.4c2.6,0.1,5.3,0.2,7.8,0.3h0.4
	c-0.2,0.1-0.4,0.2-0.6,0.3v0.1c0.3,0.2,0.4,0,0.7,0c0.3,0,0.4,0.3,0.7,0.1c-0.1-0.1-0.1-0.2-0.3-0.3c0-0.1,0-0.1-0.1-0.2h3
	c0,0.1,0.1,0.1,0.1,0.2c-0.7,0.6-0.1,1.2-0.3,1.8c0.4,0.1,0.7,0.2,1.1,0.4c0.6-0.5,1.6-0.5,2.3-0.7V17c0.3-0.1,0.6-0.2,0.8,0
	c0.2,0.2,0.5,0.3,0.8,0.2c0-0.5-0.4-0.6-1.2-0.7c-0.1-0.3-0.3-0.5-0.4-0.8c0.6,0.1,1.1,0.3,1.6,0.5c0,0.1,0.1,0.2,0.1,0.3
	c0.1,0.2,0.1,0.4,0.6,0.5c0.5,0.1,0.4-0.2,0.6-0.4c0-0.5,0.6-0.8,1.3-0.8c0,0,0,0,0,0h0.2c0.3,0,0.4-0.2,0.7-0.3
	c-0.1-0.6-0.3-1-0.4-1.5c0.1-0.1,0.4-0.1,0.6-0.2c0.4,0.1,0.8,0.2,1.2,0.4c0.3,0.1,0.6,0,0.8-0.1c0,0,0,0,0,0c0,0,0,0,0.1-0.1
	c0.1-0.2,0.1-0.3,0-0.5C396.3,13.4,398.8,13.4,400.8,13.9z M385.4,16.2c0.3,0.2,0.7,0.4,1.1,0.6c-0.3,0-0.6-0.1-0.8-0.1
	C385.1,16.6,385,16.5,385.4,16.2z M385.8,12.2v0.2h-1.1v-0.1h1.1V12.2z M403.2,6.4L403.2,6.4l-1.6,0.1c0-0.2-0.1-0.3-0.3-0.4
	c-1.2-0.2-2,0.6-3.2,0c0.3-0.3,0.7-0.4,1.2-0.4C400.6,5.8,401.9,6.1,403.2,6.4L403.2,6.4z"/>
<path class="st0" d="M413.8,22.2c0.2-0.1,0.3-0.3,0.4-0.4c-0.1,0-0.2-0.1-0.3-0.1c-0.1,0.1-0.3,0.1-0.4,0.2
	C413.7,22,413.8,22.1,413.8,22.2z"/>
<path class="st0" d="M376.5,4.6c0.3,0.1,0.6,0,0.7-0.2c0,0,0,0,0,0c0-0.1,0-0.1,0-0.2c0-0.2-0.1-0.3-0.4-0.3c-0.4-0.1-0.8,0-0.9,0.3
	c0,0,0,0.1,0,0.1C376.1,4.3,376.2,4.5,376.5,4.6z"/>
<path class="st0" d="M400.1,2.1c0.5,0.2,1.1,0.4,1.7,0.6c0.5,0,0.9-0.2,1.1-0.6c0.1-0.2,0-0.4-0.3-0.6c-0.3-0.1-0.4-0.2-0.7-0.1
	s-0.9,0.1-1.2,0.3C400.3,1.8,400.3,2,400.1,2.1z"/>
<path class="st0" d="M398.7,14.5c0,0.1,0.3,0.1,0.3,0.1c0.3,0,0.6,0,0.7-0.2c0.1-0.2,0.2-0.3,0.3-0.5c-0.1,0-0.1-0.1-0.3-0.1
	c-0.3,0.2-0.7,0.3-1.1,0.5V14.5z"/>
<path class="st0" d="M395.1,15.3c-0.2,0.4,0,0.9,0.4,1.2c0.4,0.2,1,0.3,1.6,0.2c0.4-0.1,0.8-0.3,1.2-0.5c0.2-0.2,0.5-0.4,0.6-0.7
	c-0.3-0.6-1.2-1-2.1-1c-0.5-0.1-1,0-1.4,0.2C395.4,14.9,395.1,15.1,395.1,15.3z"/>
<path class="st0" d="M366.9,7c0.3-0.1,0.4-0.4,0.2-0.6c0,0,0,0,0,0l-0.1,0c-0.6,0-0.7,0.2-0.9,0.6C366.4,7,366.7,7,366.9,7z"/>
<path class="st0" d="M369.5,17.1c0.1-0.3-0.1-0.5-0.6-0.5c-0.4-0.1-0.8,0-0.9,0.3c0,0,0,0,0,0c-0.2,0.3,0.1,0.6,0.4,0.6
	C368.8,17.6,369.3,17.4,369.5,17.1z"/>
<path class="st0" d="M400.1,16c0,0.1,0.1,0.3,0,0.3c-0.6,0.3-0.1,0.7-0.4,1.1c0,0.1,0,0.2,0.1,0.2c0.4,0.1,0.7,0.6,1.3,0.4
	c0.2,0,0.5,0,0.7,0.1l-1.1-0.7c-0.3,0-0.6,0.2-0.8-0.1c0.2-0.2,0.4-0.4,0.6-0.6c0.4,0.4,1.1,0.8,1.9,0.5c-0.3-0.4-0.6-0.7-0.8-1.1
	c0.2,0,0.5-0.1,0.6-0.2c-0.1-0.6-0.8-0.9-1.9-1.2c0,0.2,0,0.4-0.1,0.5C399.8,15.4,400,15.7,400.1,16z"/>
<path class="st0" d="M377.9,16.8c0,0.3-0.1,0.6-0.1,0.8s0.3,0.2,0.4,0.2h0.4c0.1,0.4,0,0.7,0.5,0.9c0.4-0.3,0.6-0.7,0.5-1.1
	c0.4,0,1.1,0.2,1.3-0.3c0-0.2-0.1-0.4-0.3-0.6c-0.5-0.3-0.8,0.1-1.3,0.2C378.9,16.8,378.5,16.8,377.9,16.8z"/>
<path class="st0" d="M397.6,17.3c-0.3,0.4-0.4,0.7-0.7,1h2.7c0-0.2,0-0.4-0.1-0.6C398.9,17.5,398.3,17.4,397.6,17.3z"/>
</svg>
